<svg width="20" height="20" viewBox="0 0 20 20" fill="none" xmlns="http://www.w3.org/2000/svg">
<circle cx="10" cy="10.0007" r="6.5" stroke="#282828"/>
<path d="M9.14832 7.40259C9.14115 7.35246 9.13399 7.29338 9.12683 7.22534C9.11967 7.15373 9.11609 7.0839 9.11609 7.01587C9.11609 6.87622 9.13757 6.74552 9.18054 6.62378C9.22709 6.49845 9.28796 6.39103 9.36316 6.30151C9.44194 6.20841 9.53324 6.13501 9.63708 6.0813C9.74093 6.02759 9.85372 6.00073 9.97546 6.00073C10.0972 6.00073 10.2118 6.02759 10.3192 6.0813C10.4266 6.13143 10.5197 6.20304 10.5985 6.29614C10.6809 6.38566 10.7435 6.49129 10.7865 6.61304C10.833 6.73478 10.8563 6.86548 10.8563 7.00513C10.8563 7.07674 10.8527 7.14836 10.8456 7.21997C10.842 7.288 10.8366 7.35425 10.8295 7.4187L10.287 11.5759H9.66931L9.14832 7.40259ZM9.09998 13.4451C9.09998 13.3197 9.12325 13.2034 9.1698 13.0959C9.21635 12.9849 9.2808 12.8883 9.36316 12.8059C9.44552 12.7236 9.54041 12.6591 9.64783 12.6125C9.75883 12.5624 9.87699 12.5374 10.0023 12.5374C10.1276 12.5374 10.244 12.5624 10.3514 12.6125C10.4624 12.6591 10.5591 12.7236 10.6415 12.8059C10.7238 12.8883 10.7883 12.9849 10.8348 13.0959C10.885 13.2034 10.91 13.3197 10.91 13.4451C10.91 13.5704 10.885 13.6886 10.8348 13.7996C10.7883 13.907 10.7238 14.0019 10.6415 14.0842C10.5591 14.1666 10.4624 14.231 10.3514 14.2776C10.2404 14.3241 10.1241 14.3474 10.0023 14.3474C9.87699 14.3474 9.75883 14.3241 9.64783 14.2776C9.54041 14.231 9.44552 14.1666 9.36316 14.0842C9.2808 14.0019 9.21635 13.907 9.1698 13.7996C9.12325 13.6886 9.09998 13.5704 9.09998 13.4451Z" fill="#282828"/>
</svg>
