<svg width="20" height="20" viewBox="0 0 20 20" fill="none" xmlns="http://www.w3.org/2000/svg">
<path d="M13.3334 1.6665V4.99984" stroke="#AC634D" stroke-linecap="round" stroke-linejoin="round"/>
<path d="M6.66667 1.6665V4.99984" stroke="#AC634D" stroke-linecap="round" stroke-linejoin="round"/>
<path d="M2.5 7.49986H17.5" stroke="#AC634D" stroke-linecap="round" stroke-linejoin="round"/>
<path fill-rule="evenodd" clip-rule="evenodd" d="M15.8333 3.33319H4.16667C3.24583 3.33319 2.5 4.07902 2.5 4.99986V15.8332C2.5 16.754 3.24583 17.4999 4.16667 17.4999H15.8333C16.7542 17.4999 17.5 16.754 17.5 15.8332V4.99986C17.5 4.07902 16.7542 3.33319 15.8333 3.33319Z" stroke="#AC634D" stroke-linecap="round" stroke-linejoin="round"/>
<path fill-rule="evenodd" clip-rule="evenodd" d="M9.83704 10.3961L10.0021 10.5637L10.1672 10.3961C10.4681 10.0903 10.8792 9.91815 11.3082 9.91815C11.7373 9.91815 12.1483 10.0903 12.4493 10.3961C13.0769 11.041 13.0769 12.0684 12.4493 12.7133L11.1668 14.0157C10.8596 14.3277 10.44 14.5034 10.0021 14.5034C9.56425 14.5034 9.14469 14.3277 8.83751 14.0157L7.55492 12.7134C6.92733 12.0684 6.92733 11.0411 7.55492 10.3961C7.85588 10.0904 8.26696 9.9182 8.69598 9.91815C9.125 9.91815 9.53608 10.0904 9.83704 10.3961Z" stroke="#AC634D" stroke-linecap="round" stroke-linejoin="round"/>
</svg>
