<svg width="18" height="12" viewBox="0 0 18 12" fill="none" xmlns="http://www.w3.org/2000/svg">
<g clip-path="url(#clip0_315_297)">
<path d="M8.99999 8.23771C10.2438 8.23771 11.2376 7.24386 11.2376 6.00007C11.2376 4.75628 10.2438 3.76242 8.99999 3.76242C7.7562 3.76242 6.76234 4.75628 6.76234 6.00007C6.76234 7.24386 7.7562 8.23771 8.99999 8.23771Z" fill="#5B5E63" stroke="white"/>
<path d="M-0.16748 6.06624L-0.16748 6.46124L0.216793 6.55266C0.551597 6.63232 0.884502 6.69166 1.20443 6.7487C1.33991 6.77285 1.47306 6.79659 1.60304 6.82128L1.60301 6.82147L1.61677 6.82369L2.29912 6.93369L2.30704 6.93497L2.31499 6.93599L2.99734 7.02364L2.99732 7.02382L3.01053 7.02516C3.13594 7.0379 3.25751 7.06519 3.4038 7.09804C3.47654 7.11438 3.55539 7.13208 3.64387 7.15006L3.64387 7.15006L3.64571 7.15043C3.9302 7.2071 4.23895 7.2071 4.52344 7.15043C4.54188 7.14675 4.56109 7.14298 4.58099 7.13907C4.77945 7.10009 5.04593 7.04774 5.29392 6.94808C5.52839 6.85463 5.83801 6.71827 6.12542 6.45893L6.29046 6.31001L6.29046 6.08771L6.29046 5.95537L6.29046 5.71521L6.10299 5.56509C5.86456 5.37415 5.60271 5.24542 5.40889 5.15013C5.38174 5.13678 5.35593 5.12409 5.33171 5.11198L5.31281 5.10253L5.29317 5.09471C5.04791 4.99698 4.76896 4.91824 4.49986 4.8881C4.22194 4.83603 3.92236 4.83755 3.64571 4.89266C3.55883 4.90997 3.45535 4.92971 3.34883 4.95004C3.22242 4.97416 3.09174 4.9991 2.9795 5.02173L2.31499 5.1071L2.30704 5.10812L2.29912 5.1094L1.61677 5.2194L1.61674 5.21921L1.60321 5.22177C1.47399 5.24627 1.34178 5.26982 1.20737 5.29377C0.886077 5.351 0.552203 5.41048 0.216588 5.49047L-0.16748 5.58202L-0.16748 5.97685L-0.16748 6.06624Z" fill="#5B5E63" stroke="white"/>
<path d="M18.1677 5.93003L17.749 5.93328L17.8058 5.44747C17.471 5.36782 17.1381 5.30847 16.8182 5.25143C16.6827 5.22728 16.5495 5.20354 16.4196 5.17885L16.4196 5.17866L16.4058 5.17644L15.7235 5.06644L15.7072 5.06381L15.6907 5.06227L14.9889 4.99628C14.8641 4.98347 14.7429 4.95627 14.5973 4.92357C14.5246 4.90724 14.4457 4.88953 14.3573 4.87156L14.3573 4.87156L14.3554 4.87119C14.0709 4.81451 13.7622 4.81451 13.4777 4.87119C13.4592 4.87487 13.44 4.87864 13.4201 4.88255C13.2217 4.92153 12.9552 4.97388 12.7072 5.07354C12.4727 5.16698 12.1631 5.30334 11.8757 5.56269L11.7107 5.71161V5.9339L11.7107 6.06625L11.7107 6.30641L11.8981 6.45653C12.1366 6.64746 12.3984 6.7762 12.5922 6.87149C12.6194 6.88483 12.6452 6.89752 12.6694 6.90964L12.6883 6.91909L12.708 6.92691C12.9532 7.02463 13.2322 7.10338 13.5013 7.13352C13.7792 7.18559 14.0788 7.18407 14.3554 7.12896C14.4423 7.11165 14.5458 7.0919 14.6523 7.07158C14.7787 7.04746 14.9094 7.02252 15.0216 6.99988L15.6861 6.91452L15.6941 6.9135L15.702 6.91222L16.3844 6.80222L16.3844 6.80241L16.3979 6.79984C16.5271 6.77535 16.6593 6.75179 16.7938 6.72785C17.115 6.67062 17.4489 6.61114 17.7845 6.53114L18.1717 6.43887L18.1686 6.04089L18.1677 5.93003Z" fill="#5B5E63" stroke="white"/>
</g>
<defs>
<clipPath id="clip0_315_297">
<rect width="18" height="12" fill="white"/>
</clipPath>
</defs>
</svg>
