<svg width="20" height="20" viewBox="0 0 20 20" fill="none" xmlns="http://www.w3.org/2000/svg">
<path d="M13.8887 5.46275H15.8331" stroke="#282828" stroke-linecap="round" stroke-linejoin="round"/>
<path d="M4.1665 5.46275H11.2961" stroke="#282828" stroke-linecap="round" stroke-linejoin="round"/>
<path d="M8.70361 9.99986H15.8332" stroke="#282828" stroke-linecap="round" stroke-linejoin="round"/>
<path d="M4.1665 9.99986H6.11095" stroke="#282828" stroke-linecap="round" stroke-linejoin="round"/>
<path d="M13.8887 14.537H15.8331" stroke="#282828" stroke-linecap="round" stroke-linejoin="round"/>
<path d="M4.1665 14.537H11.2961" stroke="#282828" stroke-linecap="round" stroke-linejoin="round"/>
<path d="M13.5088 4.54618C14.0151 5.05242 14.0151 5.87319 13.5088 6.37942C13.0026 6.88566 12.1818 6.88566 11.6756 6.37942C11.1693 5.87319 11.1693 5.05242 11.6756 4.54618C12.1818 4.03995 13.0026 4.03995 13.5088 4.54618" stroke="#282828" stroke-linecap="round" stroke-linejoin="round"/>
<path d="M8.32376 9.08329C8.82999 9.58953 8.82999 10.4103 8.32376 10.9165C7.81752 11.4228 6.99675 11.4228 6.49052 10.9165C5.98428 10.4103 5.98428 9.58953 6.49052 9.08329C6.99675 8.57705 7.81752 8.57705 8.32376 9.08329" stroke="#282828" stroke-linecap="round" stroke-linejoin="round"/>
<path d="M13.5088 13.6204C14.0151 14.1266 14.0151 14.9474 13.5088 15.4536C13.0026 15.9599 12.1818 15.9599 11.6756 15.4536C11.1693 14.9474 11.1693 14.1266 11.6756 13.6204C12.1818 13.1142 13.0026 13.1142 13.5088 13.6204" stroke="#282828" stroke-linecap="round" stroke-linejoin="round"/>
</svg>
