<svg width="20" height="20" viewBox="0 0 20 20" fill="none" xmlns="http://www.w3.org/2000/svg">
<circle cx="10" cy="10.0004" r="6.5" fill="#BC8372" stroke="#BC8372"/>
<path d="M9.14835 7.40222C9.14118 7.35209 9.13402 7.29301 9.12686 7.22498C9.1197 7.15336 9.11612 7.08354 9.11612 7.0155C9.11612 6.87585 9.1376 6.74516 9.18057 6.62341C9.22712 6.49809 9.28799 6.39067 9.36319 6.30115C9.44197 6.20805 9.53327 6.13464 9.63712 6.08093C9.74096 6.02722 9.85375 6.00037 9.97549 6.00037C10.0972 6.00037 10.2118 6.02722 10.3192 6.08093C10.4267 6.13106 10.5198 6.20268 10.5985 6.29578C10.6809 6.38529 10.7436 6.49093 10.7865 6.61267C10.8331 6.73442 10.8564 6.86511 10.8564 7.00476C10.8564 7.07638 10.8528 7.14799 10.8456 7.2196C10.842 7.28764 10.8367 7.35388 10.8295 7.41833L10.287 11.5756H9.66934L9.14835 7.40222ZM9.10001 13.4447C9.10001 13.3194 9.12328 13.203 9.16983 13.0956C9.21638 12.9846 9.28083 12.8879 9.36319 12.8055C9.44555 12.7232 9.54044 12.6587 9.64786 12.6122C9.75886 12.5621 9.87702 12.537 10.0023 12.537C10.1277 12.537 10.244 12.5621 10.3515 12.6122C10.4625 12.6587 10.5592 12.7232 10.6415 12.8055C10.7239 12.8879 10.7883 12.9846 10.8349 13.0956C10.885 13.203 10.9101 13.3194 10.9101 13.4447C10.9101 13.57 10.885 13.6882 10.8349 13.7992C10.7883 13.9066 10.7239 14.0015 10.6415 14.0839C10.5592 14.1662 10.4625 14.2307 10.3515 14.2772C10.2405 14.3238 10.1241 14.347 10.0023 14.347C9.87702 14.347 9.75886 14.3238 9.64786 14.2772C9.54044 14.2307 9.44555 14.1662 9.36319 14.0839C9.28083 14.0015 9.21638 13.9066 9.16983 13.7992C9.12328 13.6882 9.10001 13.57 9.10001 13.4447Z" fill="white"/>
</svg>
