<svg xmlns="http://www.w3.org/2000/svg" width="12" height="13" viewBox="0 0 12 13" fill="none"><path d="M9.75929 12.0134H2.2407C1.20173 12.0134 0.352936 11.1646 0.352936 10.1256V2.607C0.352936 1.56804 1.20173 0.719238 2.2407 0.719238H9.75929C10.7983 0.719238 11.6471 1.56804 11.6471 2.607V10.1256C11.6471 11.1692 10.8029 12.0134 9.75929 12.0134Z" fill="white" /><path d="M6.00232 9.26753C5.22774 9.26753 4.49953 8.96604 3.95222 8.41873C3.40491 7.87142 3.10342 7.14321 3.10342 6.36863C3.10342 5.59404 3.40491 4.86584 3.95222 4.31852C4.49953 3.77121 5.22774 3.46973 6.00232 3.46973C6.77691 3.46973 7.50512 3.77121 8.05243 4.31852C8.59974 4.86584 8.90123 5.59404 8.90123 6.36863C8.90123 7.14321 8.59974 7.87142 8.05243 8.41873C7.50048 8.96604 6.77691 9.26753 6.00232 9.26753ZM6.00232 4.08661C4.74536 4.08661 3.72031 5.10703 3.72031 6.36863C3.72031 7.62559 4.74072 8.65064 6.00232 8.65064C7.25929 8.65064 8.28434 7.63023 8.28434 6.36863C8.2797 5.11166 7.25929 4.08661 6.00232 4.08661Z" fill="#4D4D4D" /><path d="M9.46627 3.37444C9.77367 3.37444 10.0229 3.12524 10.0229 2.81783C10.0229 2.51043 9.77367 2.26123 9.46627 2.26123C9.15887 2.26123 8.90967 2.51043 8.90967 2.81783C8.90967 3.12524 9.15887 3.37444 9.46627 3.37444Z" fill="#4D4D4D" /></svg>