
<svg width="20" height="20" viewBox="0 0 20 20" fill="none" xmlns="http://www.w3.org/2000/svg">
<path fill-rule="evenodd" clip-rule="evenodd" d="M5 8.33339C5 5.38787 7.38781 3.00006 10.3333 3.00006C13.2789 3.00006 15.6667 5.38787 15.6667 8.33339C15.6667 10.3298 14.3169 12.5012 12.8664 14.2367C12.1529 15.0903 11.4381 15.8116 10.9011 16.3199C10.6753 16.5335 10.4816 16.709 10.3333 16.8402C10.1851 16.709 9.99134 16.5335 9.76557 16.3199C9.22859 15.8116 8.51375 15.0903 7.80031 14.2367C6.34976 12.5012 5 10.3298 5 8.33339ZM10.0157 17.8862C10.0159 17.8863 10.016 17.8864 10.3333 17.5001L10.016 17.8864C10.2004 18.0379 10.4662 18.0379 10.6507 17.8864L10.3333 17.5001C10.6507 17.8864 10.6508 17.8863 10.6509 17.8862L10.6513 17.8859L10.6524 17.885L10.6563 17.8818L10.6702 17.8703C10.6822 17.8603 10.6995 17.8457 10.7219 17.8268C10.7666 17.789 10.8313 17.7336 10.9132 17.6619C11.077 17.5186 11.3098 17.3099 11.5885 17.0462C12.1453 16.5192 12.8887 15.7692 13.6336 14.878C15.0998 13.1239 16.6667 10.712 16.6667 8.33339C16.6667 4.83559 13.8311 2.00006 10.3333 2.00006C6.83552 2.00006 4 4.83559 4 8.33339C4 10.712 5.56691 13.1239 7.03303 14.878C7.77792 15.7692 8.52141 16.5192 9.07818 17.0462C9.35689 17.3099 9.58962 17.5186 9.75343 17.6619C9.83535 17.7336 9.90009 17.789 9.94479 17.8268C9.96714 17.8457 9.98448 17.8603 9.99646 17.8703L10.0104 17.8818L10.0142 17.885L10.0154 17.8859L10.0157 17.8862ZM8.33331 8.33339C8.33331 7.2287 9.22862 6.33339 10.3333 6.33339C11.438 6.33339 12.3333 7.2287 12.3333 8.33339C12.3333 9.43808 11.438 10.3334 10.3333 10.3334C9.22862 10.3334 8.33331 9.43808 8.33331 8.33339ZM10.3333 5.33339C8.67634 5.33339 7.33331 6.67641 7.33331 8.33339C7.33331 9.99037 8.67634 11.3334 10.3333 11.3334C11.9903 11.3334 13.3333 9.99037 13.3333 8.33339C13.3333 6.67641 11.9903 5.33339 10.3333 5.33339Z" fill="#BC8372"/>
</svg>
