<svg width="24" height="24" viewBox="0 0 24 24" fill="none" xmlns="http://www.w3.org/2000/svg">
<path d="M15.8669 4.53314H8.93312C8.04938 4.53314 7.33312 5.2494 7.33312 6.13314V9.33314C7.33312 9.62815 7.57187 9.86689 7.86686 9.86689C8.16123 9.86689 8.39998 9.62813 8.39998 9.33314V6.13314C8.39998 5.83877 8.63874 5.60002 8.9331 5.60002H15.8669C16.0081 5.60002 16.1437 5.65627 16.2437 5.75627C16.3437 5.85627 16.4 5.9919 16.4 6.13315V17.8669C16.4 18.0082 16.3437 18.1438 16.2437 18.2438C16.1437 18.3438 16.0081 18.4 15.8669 18.4H8.9331C8.63874 18.4 8.39998 18.1613 8.39998 17.8669V14.6669C8.39998 14.3719 8.16123 14.1332 7.86686 14.1332C7.57186 14.1332 7.33312 14.3719 7.33312 14.6669V17.8669C7.33312 18.7507 8.04938 19.4669 8.93312 19.4669H15.8669C16.7506 19.4669 17.4669 18.7507 17.4669 17.8669V6.13316C17.4669 5.24942 16.7506 4.53316 15.8669 4.53316V4.53314Z" fill="black"/>
<path d="M2.57437 11.7963C2.52062 11.927 2.52062 12.0732 2.57437 12.2038C2.60124 12.2688 2.64062 12.3282 2.68999 12.3776L5.35687 15.0445C5.45625 15.147 5.59251 15.2057 5.73563 15.207C5.87875 15.2082 6.01625 15.152 6.1175 15.0507C6.21875 14.9501 6.275 14.812 6.27375 14.6695C6.2725 14.5263 6.21375 14.3895 6.11063 14.2901L4.35431 12.5333H13.1999C13.4943 12.5333 13.733 12.2945 13.733 12.0002C13.733 11.7058 13.4943 11.467 13.1999 11.467H4.35431L6.11063 9.71073C6.3125 9.50135 6.30938 9.16886 6.10375 8.9626C5.89812 8.75697 5.56562 8.75447 5.35625 8.95635L2.68937 11.6232C2.63999 11.6726 2.60062 11.7314 2.57437 11.7963L2.57437 11.7963Z" fill="black"/>
</svg>
