<svg width="14" height="14" viewBox="0 0 14 14" fill="none" xmlns="http://www.w3.org/2000/svg">
<path d="M10.8888 2.46311H12.8332" stroke="#282828" stroke-linecap="round" stroke-linejoin="round"/>
<path d="M1.16663 2.46311H8.29626" stroke="#282828" stroke-linecap="round" stroke-linejoin="round"/>
<path d="M5.70361 7.00016H12.8332" stroke="#282828" stroke-linecap="round" stroke-linejoin="round"/>
<path d="M1.16663 7.00016H3.11107" stroke="#282828" stroke-linecap="round" stroke-linejoin="round"/>
<path d="M10.8888 11.5372H12.8332" stroke="#282828" stroke-linecap="round" stroke-linejoin="round"/>
<path d="M1.16663 11.5372H8.29626" stroke="#282828" stroke-linecap="round" stroke-linejoin="round"/>
<path d="M10.5092 1.54649C11.0154 2.05272 11.0154 2.87349 10.5092 3.37973C10.0029 3.88596 9.18218 3.88596 8.67594 3.37973C8.16971 2.87349 8.16971 2.05272 8.67594 1.54649C9.18218 1.04025 10.0029 1.04025 10.5092 1.54649" stroke="#282828" stroke-linecap="round" stroke-linejoin="round"/>
<path d="M5.324 6.08353C5.83024 6.58977 5.83024 7.41054 5.324 7.91678C4.81777 8.42301 3.997 8.42301 3.49076 7.91678C2.98453 7.41054 2.98453 6.58977 3.49076 6.08353C3.997 5.5773 4.81777 5.5773 5.324 6.08353" stroke="#282828" stroke-linecap="round" stroke-linejoin="round"/>
<path d="M10.5092 10.6206C11.0154 11.1268 11.0154 11.9476 10.5092 12.4538C10.0029 12.9601 9.18218 12.9601 8.67594 12.4538C8.16971 11.9476 8.16971 11.1268 8.67594 10.6206C9.18218 10.1143 10.0029 10.1143 10.5092 10.6206" stroke="#282828" stroke-linecap="round" stroke-linejoin="round"/>
</svg>
