<svg width="20" height="20" viewBox="0 0 20 20" fill="none" xmlns="http://www.w3.org/2000/svg">
<path fill-rule="evenodd" clip-rule="evenodd" d="M13.4998 16.0636C12.4702 16.6592 11.2749 17 10 17C8.72507 17 7.52975 16.6592 6.50019 16.0636C6.5197 14.1474 8.07914 12.6 10 12.6C11.9209 12.6 13.4803 14.1474 13.4998 16.0636ZM14.4469 15.4063C14.1777 13.6665 12.9119 12.256 11.2512 11.7762C12.2965 11.3004 13.0232 10.2467 13.0232 9.02326C13.0232 7.35356 11.6697 6 9.99997 6C8.33027 6 6.97672 7.35356 6.97672 9.02326C6.97672 10.2467 7.70343 11.3004 8.74875 11.7763C7.08808 12.256 5.82234 13.6665 5.55314 15.4063C3.99408 14.1225 3 12.1773 3 10C3 6.13401 6.13401 3 10 3C13.866 3 17 6.13401 17 10C17 12.1773 16.0059 14.1225 14.4469 15.4063ZM18 10C18 14.4183 14.4183 18 10 18C5.58172 18 2 14.4183 2 10C2 5.58172 5.58172 2 10 2C14.4183 2 18 5.58172 18 10ZM9.99997 11.0465C11.1174 11.0465 12.0232 10.1407 12.0232 9.02326C12.0232 7.90584 11.1174 7 9.99997 7C8.88256 7 7.97672 7.90584 7.97672 9.02326C7.97672 10.1407 8.88256 11.0465 9.99997 11.0465Z" fill="#bc8372"/>
</svg>
