<svg xmlns="http://www.w3.org/2000/svg" width="12" height="14" viewBox="0 0 12 14" fill="none"><path fill-rule="evenodd" clip-rule="evenodd" d="M5.0273 9.78359C5.44442 9.79704 5.82118 10.3487 6.92453 10.3487C8.99667 10.3622 10.423 8.77443 10.867 6.68882C12.4144 -0.536778 1.87872 -1.11536 0.802277 4.83196C0.546623 6.23134 0.963743 7.846 2.05364 8.37076C2.88788 8.77443 2.9417 7.61725 2.68605 7.1194C1.55579 4.9127 2.91479 2.92128 4.69092 2.35615C6.3594 1.81793 7.54348 2.26197 8.445 3.19039C9.60217 4.38793 9.07741 7.64416 7.70495 8.68024C7.22055 9.04353 6.33249 9.12427 5.875 8.69369C4.93311 7.81908 6.38631 5.96223 6.17102 4.60322C5.95573 3.25767 3.82976 3.4595 3.72212 5.43746C3.6683 6.44662 3.96432 6.74264 3.73558 7.75181C3.37228 9.36647 2.26893 12.6631 3.04935 13.9548C4.19306 13.4166 4.75819 10.1873 5.0273 9.78359Z" fill="white"/></svg>