<svg width="201" height="24" viewBox="0 0 201 24" fill="none" xmlns="http://www.w3.org/2000/svg">
<path d="M6.81243 9.50702C6.87686 9.3329 7.12314 9.3329 7.18757 9.50702L8.04845 11.8335C8.06871 11.8883 8.11187 11.9314 8.16661 11.9517L10.4931 12.8126C10.6672 12.877 10.6672 13.1233 10.4931 13.1877L8.16661 14.0486C8.11187 14.0688 8.06871 14.112 8.04845 14.1667L7.18757 16.4932C7.12314 16.6673 6.87686 16.6673 6.81243 16.4932L5.95155 14.1667C5.93129 14.112 5.88813 14.0688 5.83339 14.0486L3.5069 13.1877C3.33278 13.1233 3.33278 12.877 3.5069 12.8126L5.83339 11.9517C5.88813 11.9314 5.93129 11.8883 5.95155 11.8335L6.81243 9.50702Z" fill="#615D5D"/>
<path d="M10.3124 7.50702C10.3769 7.3329 10.6231 7.3329 10.6876 7.50702L11.1433 8.73865C11.1636 8.79339 11.2067 8.83655 11.2615 8.85681L12.4931 9.31255C12.6672 9.37698 12.6672 9.62326 12.4931 9.68769L11.2615 10.1434C11.2067 10.1637 11.1636 10.2069 11.1433 10.2616L10.6876 11.4932C10.6231 11.6673 10.3769 11.6673 10.3124 11.4932L9.85669 10.2616C9.83643 10.2069 9.79327 10.1637 9.73852 10.1434L8.5069 9.68769C8.33278 9.62326 8.33278 9.37698 8.5069 9.31255L9.73852 8.85681C9.79327 8.83655 9.83643 8.79339 9.85669 8.73865L10.3124 7.50702Z" fill="#615D5D"/>
<path d="M21.8182 16.0001H18.8608V7.27285H21.8778C22.7443 7.27285 23.4886 7.44757 24.1108 7.797C24.7358 8.14359 25.2159 8.64217 25.5511 9.29274C25.8864 9.9433 26.054 10.7217 26.054 11.628C26.054 12.5371 25.8849 13.3183 25.5469 13.9717C25.2116 14.6251 24.7273 15.1265 24.0938 15.476C23.4631 15.8254 22.7045 16.0001 21.8182 16.0001ZM20.4418 14.6322H21.7415C22.3494 14.6322 22.8565 14.5214 23.2628 14.2998C23.669 14.0754 23.9744 13.7416 24.179 13.2984C24.3835 12.8524 24.4858 12.2956 24.4858 11.628C24.4858 10.9603 24.3835 10.4064 24.179 9.96603C23.9744 9.52285 23.6719 9.19188 23.2713 8.97313C22.8736 8.75154 22.3793 8.64075 21.7884 8.64075H20.4418V14.6322ZM29.7371 7.27285V16.0001H28.1561V7.27285H29.7371ZM36.792 9.672C36.7522 9.29984 36.5846 9.01007 36.2891 8.80268C35.9965 8.59529 35.6158 8.4916 35.1471 8.4916C34.8175 8.4916 34.5349 8.54132 34.2991 8.64075C34.0633 8.74018 33.8829 8.87512 33.7579 9.04558C33.6329 9.21603 33.569 9.41063 33.5661 9.62938C33.5661 9.8112 33.6073 9.96887 33.6897 10.1024C33.7749 10.2359 33.89 10.3496 34.0349 10.4433C34.1798 10.5342 34.3403 10.6109 34.5164 10.6734C34.6925 10.7359 34.8701 10.7885 35.0491 10.8311L35.8673 11.0356C36.1968 11.1123 36.5136 11.216 36.8175 11.3467C37.1244 11.4774 37.3985 11.6422 37.64 11.841C37.8843 12.0399 38.0775 12.28 38.2195 12.5612C38.3616 12.8425 38.4326 13.172 38.4326 13.5498C38.4326 14.0612 38.3019 14.5115 38.0406 14.9007C37.7792 15.2871 37.4013 15.5896 36.907 15.8084C36.4156 16.0243 35.8204 16.1322 35.1215 16.1322C34.4425 16.1322 33.8531 16.0271 33.3531 15.8169C32.8559 15.6067 32.4667 15.2998 32.1854 14.8964C31.907 14.493 31.7565 14.0015 31.7337 13.422H33.2891C33.3119 13.726 33.4056 13.9788 33.5704 14.1805C33.7352 14.3822 33.9496 14.5328 34.2138 14.6322C34.4809 14.7317 34.7792 14.7814 35.1087 14.7814C35.4525 14.7814 35.7536 14.7302 36.0121 14.628C36.2735 14.5228 36.4781 14.378 36.6258 14.1933C36.7735 14.0058 36.8488 13.7871 36.8516 13.5371C36.8488 13.3098 36.782 13.1223 36.6513 12.9746C36.5207 12.824 36.3374 12.699 36.1016 12.5996C35.8687 12.4973 35.596 12.4064 35.2835 12.3268L34.2906 12.0711C33.5718 11.8865 33.0036 11.6067 32.586 11.2317C32.1712 10.8538 31.9638 10.3524 31.9638 9.72739C31.9638 9.21319 32.1031 8.76291 32.3815 8.37654C32.6627 7.99018 33.0448 7.69046 33.5278 7.47739C34.0107 7.26149 34.5576 7.15353 35.1684 7.15353C35.7877 7.15353 36.3303 7.26149 36.7962 7.47739C37.265 7.69046 37.6329 7.98734 37.8999 8.36802C38.167 8.74586 38.3048 9.18052 38.3133 9.672H36.792ZM47.6139 7.27285V16.0001H46.2077L42.0955 10.0555H42.023V16.0001H40.442V7.27285H41.8568L45.9648 13.2217H46.0415V7.27285H47.6139ZM49.9366 16.0001V7.27285H55.6127V8.59813H51.5175V10.9675H55.3187V12.2927H51.5175V14.6748H55.6468V16.0001H49.9366ZM57.229 7.27285H59.0146L61.1495 11.1336H61.2347L63.3697 7.27285H65.1552L61.9805 12.7444V16.0001H60.4038V12.7444L57.229 7.27285ZM70.4514 16.0001V7.27285H73.7241C74.3946 7.27285 74.9571 7.39785 75.4116 7.64785C75.869 7.89785 76.2142 8.2416 76.4472 8.6791C76.683 9.11376 76.8009 9.60808 76.8009 10.1621C76.8009 10.7217 76.683 11.2189 76.4472 11.6535C76.2114 12.0882 75.8634 12.4305 75.4031 12.6805C74.9429 12.9277 74.3761 13.0513 73.7028 13.0513H71.5338V11.7515H73.4898C73.8818 11.7515 74.2028 11.6834 74.4528 11.547C74.7028 11.4106 74.8875 11.2231 75.0068 10.9845C75.129 10.7459 75.1901 10.4717 75.1901 10.1621C75.1901 9.85239 75.129 9.57967 75.0068 9.34387C74.8875 9.10808 74.7014 8.92484 74.4486 8.79416C74.1986 8.66063 73.8761 8.59387 73.4813 8.59387H72.0324V16.0001H70.4514ZM78.7741 16.0001V7.27285H80.355V14.6748H84.1988V16.0001H78.7741ZM87.6198 16.0001H85.9323L89.0048 7.27285H90.9565L94.0332 16.0001H92.3457L90.0147 9.06262H89.9465L87.6198 16.0001ZM87.6752 12.5782H92.2775V13.8481H87.6752V12.5782ZM94.3445 8.59813V7.27285H101.308V8.59813H98.6101V16.0001H97.0419V8.59813H94.3445ZM104.831 7.27285V16.0001H103.25V7.27285H104.831ZM114.315 7.27285V16.0001H112.908L108.796 10.0555H108.724V16.0001H107.143V7.27285H108.558L112.666 13.2217H112.742V7.27285H114.315ZM122.139 7.27285H123.72V12.9746C123.72 13.5996 123.572 14.1493 123.277 14.6237C122.984 15.0981 122.572 15.4689 122.041 15.7359C121.51 16.0001 120.889 16.1322 120.179 16.1322C119.465 16.1322 118.843 16.0001 118.312 15.7359C117.781 15.4689 117.369 15.0981 117.076 14.6237C116.784 14.1493 116.637 13.5996 116.637 12.9746V7.27285H118.218V12.8425C118.218 13.2061 118.298 13.53 118.457 13.814C118.619 14.0981 118.846 14.3211 119.139 14.4831C119.431 14.6422 119.778 14.7217 120.179 14.7217C120.579 14.7217 120.926 14.6422 121.218 14.4831C121.514 14.3211 121.741 14.0981 121.9 13.814C122.059 13.53 122.139 13.2061 122.139 12.8425V7.27285ZM126.038 7.27285H127.973L130.564 13.5967H130.666L133.257 7.27285H135.192V16.0001H133.675V10.0044H133.594L131.182 15.9746H130.048L127.636 9.9916H127.555V16.0001H126.038V7.27285ZM141.09 16.0001V7.27285H144.362C145.033 7.27285 145.595 7.38933 146.05 7.62228C146.507 7.85524 146.852 8.18194 147.085 8.60239C147.321 9.02001 147.439 9.50722 147.439 10.064C147.439 10.6237 147.32 11.1095 147.081 11.5214C146.845 11.9305 146.497 12.2473 146.037 12.4717C145.577 12.6933 145.012 12.8041 144.341 12.8041H142.01V11.4916H144.128C144.52 11.4916 144.841 11.4376 145.091 11.3297C145.341 11.2189 145.526 11.0584 145.645 10.8481C145.767 10.6351 145.828 10.3737 145.828 10.064C145.828 9.75438 145.767 9.49018 145.645 9.27143C145.523 9.04984 145.337 8.88222 145.087 8.76859C144.837 8.65211 144.514 8.59387 144.12 8.59387H142.671V16.0001H141.09ZM145.598 12.0456L147.759 16.0001H145.995L143.872 12.0456H145.598ZM149.494 16.0001V7.27285H155.171V8.59813H151.075V10.9675H154.876V12.2927H151.075V14.6748H155.205V16.0001H149.494ZM157 8.59813V7.27285H163.963V8.59813H161.266V16.0001H159.697V8.59813H157ZM165.971 16.0001H164.284L167.356 7.27285H169.308L172.385 16.0001H170.697L168.366 9.06262H168.298L165.971 16.0001ZM166.027 12.5782H170.629V13.8481H166.027V12.5782ZM175.715 7.27285V16.0001H174.134V7.27285H175.715ZM178.027 16.0001V7.27285H179.608V14.6748H183.452V16.0001H178.027ZM185.424 16.0001V7.27285H191.1V8.59813H187.005V10.9675H190.806V12.2927H187.005V14.6748H191.134V16.0001H185.424ZM193.313 16.0001V7.27285H196.586C197.256 7.27285 197.819 7.38933 198.273 7.62228C198.731 7.85524 199.076 8.18194 199.309 8.60239C199.545 9.02001 199.663 9.50722 199.663 10.064C199.663 10.6237 199.543 11.1095 199.305 11.5214C199.069 11.9305 198.721 12.2473 198.261 12.4717C197.8 12.6933 197.235 12.8041 196.565 12.8041H194.234V11.4916H196.351C196.744 11.4916 197.065 11.4376 197.315 11.3297C197.565 11.2189 197.749 11.0584 197.869 10.8481C197.991 10.6351 198.052 10.3737 198.052 10.064C198.052 9.75438 197.991 9.49018 197.869 9.27143C197.746 9.04984 197.56 8.88222 197.31 8.76859C197.06 8.65211 196.738 8.59387 196.343 8.59387H194.894V16.0001H193.313ZM197.822 12.0456L199.982 16.0001H198.218L196.096 12.0456H197.822Z" fill="#5B5E63"/>
</svg>
