<svg width="177" height="20" viewBox="0 0 177 20" fill="none" xmlns="http://www.w3.org/2000/svg">
<path d="M4.81243 7.50739C4.87686 7.33327 5.12314 7.33327 5.18757 7.50739L6.04845 9.83388C6.06871 9.88862 6.11187 9.93178 6.16661 9.95204L8.4931 10.8129C8.66722 10.8773 8.66722 11.1236 8.4931 11.1881L6.16661 12.0489C6.11187 12.0692 6.06871 12.1124 6.04845 12.1671L5.18757 14.4936C5.12314 14.6677 4.87686 14.6677 4.81243 14.4936L3.95155 12.1671C3.93129 12.1124 3.88813 12.0692 3.83339 12.0489L1.5069 11.1881C1.33278 11.1236 1.33278 10.8773 1.5069 10.8129L3.83339 9.95204C3.88813 9.93178 3.93129 9.88862 3.95155 9.83388L4.81243 7.50739Z" fill="#615D5D"/>
<path d="M8.31243 5.50739C8.37686 5.33327 8.62314 5.33327 8.68757 5.50739L9.14331 6.73901C9.16357 6.79376 9.20673 6.83692 9.26148 6.85718L10.4931 7.31292C10.6672 7.37735 10.6672 7.62363 10.4931 7.68806L9.26148 8.1438C9.20673 8.16406 9.16357 8.20722 9.14331 8.26196L8.68757 9.49359C8.62314 9.66771 8.37686 9.66771 8.31243 9.49359L7.85669 8.26196C7.83643 8.20722 7.79327 8.16406 7.73852 8.1438L6.5069 7.68806C6.33278 7.62363 6.33278 7.37735 6.5069 7.31292L7.73852 6.85718C7.79327 6.83692 7.83643 6.79376 7.85669 6.73901L8.31243 5.50739Z" fill="#615D5D"/>
<path d="M17.1534 14.0005H14.799V6.72776H17.228C17.9406 6.72776 18.5526 6.87336 19.0639 7.16455C19.5753 7.45338 19.9671 7.86886 20.2393 8.411C20.514 8.95077 20.6513 9.59826 20.6513 10.3535C20.6513 11.111 20.5128 11.7621 20.2358 12.3066C19.9612 12.8511 19.5634 13.2701 19.0426 13.5637C18.5218 13.8549 17.892 14.0005 17.1534 14.0005ZM15.8963 13.0417H17.093C17.647 13.0417 18.1075 12.9375 18.4744 12.7292C18.8414 12.5185 19.116 12.2143 19.2983 11.8165C19.4806 11.4164 19.5717 10.9288 19.5717 10.3535C19.5717 9.78292 19.4806 9.29878 19.2983 8.90106C19.1184 8.50333 18.8497 8.20148 18.4922 7.99552C18.1347 7.78955 17.6908 7.68657 17.1605 7.68657H15.8963V13.0417ZM24.1131 6.72776V14.0005H23.0158V6.72776H24.1131ZM30.6777 8.63827C30.6399 8.3021 30.4836 8.04168 30.209 7.85702C29.9344 7.67 29.5887 7.57648 29.1721 7.57648C28.8738 7.57648 28.6157 7.62383 28.3979 7.71853C28.1801 7.81086 28.0108 7.9387 27.8901 8.10205C27.7717 8.26304 27.7125 8.44651 27.7125 8.65248C27.7125 8.8253 27.7528 8.97445 27.8333 9.09992C27.9161 9.22539 28.0239 9.33074 28.1564 9.41597C28.2914 9.49883 28.4358 9.56867 28.5897 9.62549C28.7435 9.67994 28.8915 9.72492 29.0336 9.76043L29.7438 9.94509C29.9758 10.0019 30.2137 10.0788 30.4576 10.1759C30.7014 10.273 30.9275 10.4008 31.1358 10.5594C31.3442 10.7181 31.5123 10.9146 31.6401 11.1489C31.7703 11.3833 31.8354 11.6638 31.8354 11.9905C31.8354 12.4025 31.7289 12.7682 31.5158 13.0878C31.3051 13.4074 30.9985 13.6596 30.5961 13.8442C30.196 14.0289 29.7118 14.1212 29.1436 14.1212C28.5991 14.1212 28.128 14.0348 27.7303 13.862C27.3326 13.6892 27.0212 13.4441 26.7963 13.1269C26.5714 12.8073 26.4471 12.4285 26.4235 11.9905H27.5243C27.5456 12.2533 27.6309 12.4723 27.78 12.6475C27.9315 12.8203 28.1245 12.9494 28.3588 13.0346C28.5956 13.1174 28.8548 13.1589 29.1365 13.1589C29.4467 13.1589 29.7225 13.1103 29.964 13.0133C30.2078 12.9138 30.3996 12.7765 30.5392 12.6013C30.6789 12.4238 30.7488 12.2166 30.7488 11.9799C30.7488 11.7645 30.6872 11.5881 30.5641 11.4508C30.4434 11.3135 30.2788 11.1998 30.0705 11.1099C29.8645 11.0199 29.6313 10.9406 29.3709 10.8719L28.5115 10.6376C27.9292 10.4789 27.4675 10.2458 27.1266 9.93799C26.7881 9.63022 26.6188 9.22303 26.6188 8.7164C26.6188 8.29736 26.7324 7.9316 26.9597 7.6191C27.187 7.3066 27.4947 7.06393 27.883 6.89111C28.2712 6.71592 28.7092 6.62833 29.1969 6.62833C29.6893 6.62833 30.1238 6.71474 30.5002 6.88756C30.879 7.06038 31.1773 7.29831 31.3951 7.60134C31.6129 7.902 31.7265 8.24765 31.736 8.63827H30.6777ZM40.0167 6.72776V14.0005H39.0082L35.3114 8.66668H35.244V14.0005H34.1467V6.72776H35.1623L38.8626 12.0687H38.93V6.72776H40.0167ZM42.6174 14.0005V6.72776H47.177V7.67236H43.7147V9.88827H46.9391V10.8293H43.7147V13.0559H47.2196V14.0005H42.6174ZM49.0817 6.72776H50.3281L52.228 10.0339H52.3061L54.206 6.72776H55.4524L52.8139 11.1454V14.0005H51.7202V11.1454L49.0817 6.72776ZM61.1349 14.0005V6.72776H63.7273C64.2931 6.72776 64.7618 6.83074 65.1335 7.03671C65.5052 7.24268 65.7834 7.5244 65.968 7.88188C66.1527 8.23699 66.245 8.63709 66.245 9.08216C66.245 9.52961 66.1515 9.93207 65.9645 10.2896C65.7798 10.6447 65.5005 10.9264 65.1264 11.1347C64.7547 11.3407 64.2872 11.4437 63.7237 11.4437H61.9411V10.5133H63.6243C63.9818 10.5133 64.2718 10.4517 64.4943 10.3286C64.7169 10.2031 64.8802 10.0327 64.9844 9.81725C65.0885 9.60181 65.1406 9.35679 65.1406 9.08216C65.1406 8.80754 65.0885 8.5637 64.9844 8.35063C64.8802 8.13756 64.7157 7.97066 64.4908 7.84992C64.2682 7.72918 63.9747 7.66881 63.6101 7.66881H62.2322V14.0005H61.1349ZM68.5314 14.0005V6.72776H69.6287V13.0559H72.9242V14.0005H68.5314ZM76.1614 14.0005H74.9966L77.6138 6.72776H78.8816L81.4988 14.0005H80.334L78.2779 8.04878H78.2211L76.1614 14.0005ZM76.3567 11.1525H80.1351V12.0758H76.3567V11.1525ZM82.331 7.67236V6.72776H87.9595V7.67236H85.6903V14.0005H84.5966V7.67236H82.331ZM91.3006 6.72776V14.0005H90.2033V6.72776H91.3006ZM99.7686 6.72776V14.0005H98.7601L95.0634 8.66668H94.9959V14.0005H93.8986V6.72776H94.9142L98.6145 12.0687H98.682V6.72776H99.7686ZM107.046 6.72776H108.147V11.5111C108.147 12.0201 108.027 12.4711 107.788 12.8641C107.549 13.2547 107.213 13.5625 106.78 13.7874C106.347 14.01 105.839 14.1212 105.256 14.1212C104.676 14.1212 104.17 14.01 103.737 13.7874C103.303 13.5625 102.967 13.2547 102.728 12.8641C102.489 12.4711 102.369 12.0201 102.369 11.5111V6.72776H103.467V11.4224C103.467 11.7514 103.539 12.0438 103.683 12.2995C103.83 12.5552 104.037 12.7564 104.305 12.9032C104.572 13.0476 104.889 13.1198 105.256 13.1198C105.626 13.1198 105.944 13.0476 106.212 12.9032C106.482 12.7564 106.688 12.5552 106.83 12.2995C106.974 12.0438 107.046 11.7514 107.046 11.4224V6.72776ZM110.742 6.72776H112.074L114.389 12.3812H114.475L116.79 6.72776H118.122V14.0005H117.078V8.7377H117.01L114.865 13.9898H113.999L111.854 8.73415H111.786V14.0005H110.742V6.72776ZM124.363 14.0005V6.72776H126.956C127.519 6.72776 127.987 6.82483 128.358 7.01895C128.733 7.21308 129.012 7.48179 129.197 7.82506C129.381 8.16597 129.474 8.56015 129.474 9.00759C129.474 9.45267 129.38 9.84447 129.193 10.183C129.008 10.5192 128.729 10.7808 128.355 10.9678C127.983 11.1548 127.516 11.2484 126.952 11.2484H124.988V10.3038H126.853C127.208 10.3038 127.497 10.2529 127.719 10.1511C127.944 10.0493 128.109 9.90129 128.213 9.70716C128.317 9.51304 128.369 9.27984 128.369 9.00759C128.369 8.73297 128.316 8.49504 128.209 8.29381C128.105 8.09258 127.941 7.9387 127.716 7.83216C127.493 7.72326 127.201 7.66881 126.839 7.66881H125.461V14.0005H124.363ZM127.954 10.7192L129.751 14.0005H128.501L126.739 10.7192H127.954ZM131.809 14.0005V6.72776H136.368V7.67236H132.906V9.88827H136.131V10.8293H132.906V13.0559H136.411V14.0005H131.809ZM138.475 7.67236V6.72776H144.104V7.67236H141.835V14.0005H140.741V7.67236H138.475ZM146.103 14.0005H144.938L147.555 6.72776H148.823L151.44 14.0005H150.275L148.219 8.04878H148.162L146.103 14.0005ZM146.298 11.1525H150.077V12.0758H146.298V11.1525ZM154.588 6.72776V14.0005H153.49V6.72776H154.588ZM157.186 14.0005V6.72776H158.283V13.0559H161.578V14.0005H157.186ZM163.83 14.0005V6.72776H168.39V7.67236H164.928V9.88827H168.152V10.8293H164.928V13.0559H168.433V14.0005H163.83ZM170.856 14.0005V6.72776H173.448C174.011 6.72776 174.479 6.82483 174.851 7.01895C175.225 7.21308 175.504 7.48179 175.689 7.82506C175.873 8.16597 175.966 8.56015 175.966 9.00759C175.966 9.45267 175.872 9.84447 175.685 10.183C175.501 10.5192 175.221 10.7808 174.847 10.9678C174.475 11.1548 174.008 11.2484 173.444 11.2484H171.481V10.3038H173.345C173.7 10.3038 173.989 10.2529 174.211 10.1511C174.436 10.0493 174.601 9.90129 174.705 9.70716C174.809 9.51304 174.861 9.27984 174.861 9.00759C174.861 8.73297 174.808 8.49504 174.702 8.29381C174.597 8.09258 174.433 7.9387 174.208 7.83216C173.985 7.72326 173.693 7.66881 173.331 7.66881H171.953V14.0005H170.856ZM174.446 10.7192L176.243 14.0005H174.993L173.231 10.7192H174.446Z" fill="#5B5E63"/>
</svg>
