<svg width="195" height="16" viewBox="0 0 195 16" fill="none" xmlns="http://www.w3.org/2000/svg">
<rect y="0.000488281" width="195" height="16" rx="8" fill="#F0F0F1"/>
<path d="M9.15341 12.0005H6.79901V4.72776H9.22798C9.94058 4.72776 10.5526 4.87336 11.0639 5.16455C11.5753 5.45338 11.9671 5.86886 12.2393 6.411C12.514 6.95077 12.6513 7.59826 12.6513 8.35347C12.6513 9.11105 12.5128 9.76209 12.2358 10.3066C11.9612 10.8511 11.5634 11.2701 11.0426 11.5637C10.5218 11.8549 9.89205 12.0005 9.15341 12.0005ZM7.89631 11.0417H9.09304C9.64702 11.0417 10.1075 10.9375 10.4744 10.7292C10.8414 10.5185 11.116 10.2143 11.2983 9.81654C11.4806 9.41644 11.5717 8.92876 11.5717 8.35347C11.5717 7.78292 11.4806 7.29878 11.2983 6.90106C11.1184 6.50333 10.8497 6.20148 10.4922 5.99552C10.1347 5.78955 9.69081 5.68657 9.16051 5.68657H7.89631V11.0417ZM16.1131 4.72776V12.0005H15.0158V4.72776H16.1131ZM22.6777 6.63827C22.6399 6.3021 22.4836 6.04168 22.209 5.85702C21.9344 5.67 21.5887 5.57648 21.1721 5.57648C20.8738 5.57648 20.6157 5.62383 20.3979 5.71853C20.1801 5.81086 20.0108 5.9387 19.8901 6.10205C19.7717 6.26304 19.7125 6.44651 19.7125 6.65248C19.7125 6.8253 19.7528 6.97445 19.8333 7.09992C19.9161 7.22539 20.0239 7.33074 20.1564 7.41597C20.2914 7.49883 20.4358 7.56867 20.5897 7.62549C20.7435 7.67994 20.8915 7.72492 21.0336 7.76043L21.7438 7.94509C21.9758 8.00191 22.2137 8.07885 22.4576 8.17591C22.7014 8.27298 22.9275 8.40082 23.1358 8.55944C23.3442 8.71805 23.5123 8.91455 23.6401 9.14893C23.7703 9.3833 23.8354 9.66384 23.8354 9.99055C23.8354 10.4025 23.7289 10.7682 23.5158 11.0878C23.3051 11.4074 22.9985 11.6596 22.5961 11.8442C22.196 12.0289 21.7118 12.1212 21.1436 12.1212C20.5991 12.1212 20.128 12.0348 19.7303 11.862C19.3326 11.6892 19.0212 11.4441 18.7963 11.1269C18.5714 10.8073 18.4471 10.4285 18.4235 9.99055H19.5243C19.5456 10.2533 19.6309 10.4723 19.78 10.6475C19.9315 10.8203 20.1245 10.9494 20.3588 11.0346C20.5956 11.1174 20.8548 11.1589 21.1365 11.1589C21.4467 11.1589 21.7225 11.1103 21.964 11.0133C22.2078 10.9138 22.3996 10.7765 22.5392 10.6013C22.6789 10.4238 22.7488 10.2166 22.7488 9.97989C22.7488 9.76446 22.6872 9.58808 22.5641 9.45077C22.4434 9.31346 22.2788 9.19983 22.0705 9.10986C21.8645 9.0199 21.6313 8.94059 21.3709 8.87194L20.5115 8.63756C19.9292 8.47894 19.4675 8.24575 19.1266 7.93799C18.7881 7.63022 18.6188 7.22303 18.6188 6.7164C18.6188 6.29736 18.7324 5.9316 18.9597 5.6191C19.187 5.3066 19.4947 5.06393 19.883 4.89111C20.2712 4.71592 20.7092 4.62833 21.1969 4.62833C21.6893 4.62833 22.1238 4.71474 22.5002 4.88756C22.879 5.06038 23.1773 5.29831 23.3951 5.60134C23.6129 5.902 23.7265 6.24765 23.736 6.63827H22.6777ZM32.0167 4.72776V12.0005H31.0082L27.3114 6.66668H27.244V12.0005H26.1467V4.72776H27.1623L30.8626 10.0687H30.93V4.72776H32.0167ZM34.6174 12.0005V4.72776H39.177V5.67236H35.7147V7.88827H38.9391V8.82932H35.7147V11.0559H39.2196V12.0005H34.6174ZM41.0817 4.72776H42.3281L44.228 8.03387H44.3061L46.206 4.72776H47.4524L44.8139 9.14537V12.0005H43.7202V9.14537L41.0817 4.72776ZM53.1349 12.0005V4.72776H55.7273C56.2931 4.72776 56.7618 4.83074 57.1335 5.03671C57.5052 5.24268 57.7834 5.5244 57.968 5.88188C58.1527 6.23699 58.245 6.63709 58.245 7.08216C58.245 7.52961 58.1515 7.93207 57.9645 8.28955C57.7798 8.64466 57.5005 8.92639 57.1264 9.13472C56.7547 9.34069 56.2872 9.44367 55.7237 9.44367H53.9411V8.51327H55.6243C55.9818 8.51327 56.2718 8.45172 56.4943 8.32861C56.7169 8.20314 56.8802 8.03269 56.9844 7.81725C57.0885 7.60181 57.1406 7.35679 57.1406 7.08216C57.1406 6.80754 57.0885 6.5637 56.9844 6.35063C56.8802 6.13756 56.7157 5.97066 56.4908 5.84992C56.2682 5.72918 55.9747 5.66881 55.6101 5.66881H54.2322V12.0005H53.1349ZM60.5314 12.0005V4.72776H61.6287V11.0559H64.9242V12.0005H60.5314ZM68.1614 12.0005H66.9966L69.6138 4.72776H70.8816L73.4988 12.0005H72.334L70.2779 6.04878H70.2211L68.1614 12.0005ZM68.3567 9.15248H72.1351V10.0758H68.3567V9.15248ZM74.331 5.67236V4.72776H79.9595V5.67236H77.6903V12.0005H76.5966V5.67236H74.331ZM83.3006 4.72776V12.0005H82.2033V4.72776H83.3006ZM91.7686 4.72776V12.0005H90.7601L87.0634 6.66668H86.9959V12.0005H85.8986V4.72776H86.9142L90.6145 10.0687H90.682V4.72776H91.7686ZM99.0462 4.72776H100.147V9.51114C100.147 10.0201 100.027 10.4711 99.7884 10.8641C99.5492 11.2547 99.2131 11.5625 98.7798 11.7874C98.3466 12.01 97.8388 12.1212 97.2564 12.1212C96.6764 12.1212 96.1697 12.01 95.7365 11.7874C95.3033 11.5625 94.9671 11.2547 94.728 10.8641C94.4889 10.4711 94.3693 10.0201 94.3693 9.51114V4.72776H95.4666V9.42236C95.4666 9.75144 95.5388 10.0438 95.6832 10.2995C95.83 10.5552 96.0372 10.7564 96.3047 10.9032C96.5722 11.0476 96.8894 11.1198 97.2564 11.1198C97.6257 11.1198 97.9441 11.0476 98.2116 10.9032C98.4815 10.7564 98.6875 10.5552 98.8295 10.2995C98.974 10.0438 99.0462 9.75144 99.0462 9.42236V4.72776ZM102.742 4.72776H104.074L106.389 10.3812H106.475L108.79 4.72776H110.122V12.0005H109.078V6.7377H109.01L106.865 11.9898H105.999L103.854 6.73415H103.786V12.0005H102.742V4.72776ZM122.404 7.09282H121.296C121.253 6.85608 121.174 6.64774 121.058 6.46782C120.942 6.28789 120.8 6.13519 120.632 6.00972C120.464 5.88425 120.276 5.78955 120.067 5.72563C119.861 5.66171 119.642 5.62975 119.41 5.62975C118.991 5.62975 118.616 5.7351 118.285 5.9458C117.956 6.1565 117.695 6.46545 117.503 6.87265C117.314 7.27984 117.219 7.777 117.219 8.36412C117.219 8.95598 117.314 9.45551 117.503 9.8627C117.695 10.2699 117.957 10.5777 118.288 10.786C118.62 10.9943 118.992 11.0985 119.407 11.0985C119.636 11.0985 119.854 11.0677 120.06 11.0062C120.269 10.9422 120.457 10.8487 120.625 10.7256C120.793 10.6025 120.935 10.4522 121.051 10.2746C121.169 10.0947 121.251 9.88875 121.296 9.65674L122.404 9.66029C122.345 10.0178 122.23 10.3468 122.059 10.6475C121.891 10.9458 121.675 11.2039 121.41 11.4217C121.147 11.6371 120.846 11.804 120.508 11.9224C120.169 12.0407 119.8 12.0999 119.4 12.0999C118.77 12.0999 118.209 11.9508 117.716 11.6525C117.224 11.3518 116.836 10.9221 116.552 10.3634C116.27 9.8047 116.129 9.13827 116.129 8.36412C116.129 7.58761 116.271 6.92118 116.555 6.36483C116.839 5.80612 117.228 5.37762 117.72 5.07932C118.212 4.77866 118.772 4.62833 119.4 4.62833C119.786 4.62833 120.145 4.68396 120.479 4.79523C120.815 4.90413 121.117 5.06512 121.385 5.27819C121.652 5.48889 121.874 5.74694 122.049 6.05233C122.224 6.35536 122.342 6.70219 122.404 7.09282ZM131.034 8.36412C131.034 9.14064 130.892 9.80825 130.608 10.367C130.324 10.9233 129.935 11.3518 129.44 11.6525C128.948 11.9508 128.388 12.0999 127.76 12.0999C127.131 12.0999 126.568 11.9508 126.074 11.6525C125.581 11.3518 125.193 10.9221 124.909 10.3634C124.625 9.8047 124.483 9.13827 124.483 8.36412C124.483 7.58761 124.625 6.92118 124.909 6.36483C125.193 5.80612 125.581 5.37762 126.074 5.07932C126.568 4.77866 127.131 4.62833 127.76 4.62833C128.388 4.62833 128.948 4.77866 129.44 5.07932C129.935 5.37762 130.324 5.80612 130.608 6.36483C130.892 6.92118 131.034 7.58761 131.034 8.36412ZM129.948 8.36412C129.948 7.77227 129.852 7.27393 129.66 6.8691C129.471 6.4619 129.21 6.15413 128.879 5.9458C128.55 5.7351 128.177 5.62975 127.76 5.62975C127.341 5.62975 126.967 5.7351 126.638 5.9458C126.309 6.15413 126.049 6.4619 125.857 6.8691C125.667 7.27393 125.573 7.77227 125.573 8.36412C125.573 8.95598 125.667 9.45551 125.857 9.8627C126.049 10.2675 126.309 10.5753 126.638 10.786C126.967 10.9943 127.341 11.0985 127.76 11.0985C128.177 11.0985 128.55 10.9943 128.879 10.786C129.21 10.5753 129.471 10.2675 129.66 9.8627C129.852 9.45551 129.948 8.95598 129.948 8.36412ZM133.403 12.0005V4.72776H134.5V11.0559H137.795V12.0005H133.403ZM140.047 12.0005V4.72776H141.144V11.0559H144.44V12.0005H140.047ZM146.692 12.0005V4.72776H151.251V5.67236H147.789V7.88827H151.013V8.82932H147.789V11.0559H151.294V12.0005H146.692ZM159.757 7.09282H158.65C158.607 6.85608 158.528 6.64774 158.412 6.46782C158.296 6.28789 158.154 6.13519 157.985 6.00972C157.817 5.88425 157.629 5.78955 157.421 5.72563C157.215 5.66171 156.996 5.62975 156.764 5.62975C156.345 5.62975 155.97 5.7351 155.638 5.9458C155.309 6.1565 155.049 6.46545 154.857 6.87265C154.667 7.27984 154.573 7.777 154.573 8.36412C154.573 8.95598 154.667 9.45551 154.857 9.8627C155.049 10.2699 155.31 10.5777 155.642 10.786C155.973 10.9943 156.346 11.0985 156.76 11.0985C156.99 11.0985 157.208 11.0677 157.414 11.0062C157.622 10.9422 157.81 10.8487 157.978 10.7256C158.146 10.6025 158.288 10.4522 158.404 10.2746C158.523 10.0947 158.605 9.88875 158.65 9.65674L159.757 9.66029C159.698 10.0178 159.583 10.3468 159.413 10.6475C159.245 10.9458 159.028 11.2039 158.763 11.4217C158.5 11.6371 158.2 11.804 157.861 11.9224C157.523 12.0407 157.153 12.0999 156.753 12.0999C156.123 12.0999 155.562 11.9508 155.07 11.6525C154.578 11.3518 154.189 10.9221 153.905 10.3634C153.623 9.8047 153.483 9.13827 153.483 8.36412C153.483 7.58761 153.625 6.92118 153.909 6.36483C154.193 5.80612 154.581 5.37762 155.074 5.07932C155.566 4.77866 156.126 4.62833 156.753 4.62833C157.139 4.62833 157.499 4.68396 157.833 4.79523C158.169 4.90413 158.471 5.06512 158.738 5.27819C159.006 5.48889 159.227 5.74694 159.402 6.05233C159.578 6.35536 159.696 6.70219 159.757 7.09282ZM161.712 5.67236V4.72776H167.34V5.67236H165.071V12.0005H163.977V5.67236H161.712ZM170.681 4.72776V12.0005H169.584V4.72776H170.681ZM179.597 8.36412C179.597 9.14064 179.455 9.80825 179.171 10.367C178.887 10.9233 178.497 11.3518 178.002 11.6525C177.51 11.9508 176.95 12.0999 176.323 12.0999C175.693 12.0999 175.131 11.9508 174.636 11.6525C174.144 11.3518 173.755 10.9221 173.471 10.3634C173.187 9.8047 173.045 9.13827 173.045 8.36412C173.045 7.58761 173.187 6.92118 173.471 6.36483C173.755 5.80612 174.144 5.37762 174.636 5.07932C175.131 4.77866 175.693 4.62833 176.323 4.62833C176.95 4.62833 177.51 4.77866 178.002 5.07932C178.497 5.37762 178.887 5.80612 179.171 6.36483C179.455 6.92118 179.597 7.58761 179.597 8.36412ZM178.51 8.36412C178.51 7.77227 178.414 7.27393 178.223 6.8691C178.033 6.4619 177.773 6.15413 177.441 5.9458C177.112 5.7351 176.739 5.62975 176.323 5.62975C175.904 5.62975 175.53 5.7351 175.201 5.9458C174.872 6.15413 174.611 6.4619 174.419 6.8691C174.23 7.27393 174.135 7.77227 174.135 8.36412C174.135 8.95598 174.23 9.45551 174.419 9.8627C174.611 10.2675 174.872 10.5753 175.201 10.786C175.53 10.9943 175.904 11.0985 176.323 11.0985C176.739 11.0985 177.112 10.9943 177.441 10.786C177.773 10.5753 178.033 10.2675 178.223 9.8627C178.414 9.45551 178.51 8.95598 178.51 8.36412ZM187.835 4.72776V12.0005H186.827L183.13 6.66668H183.062V12.0005H181.965V4.72776H182.981L186.681 10.0687H186.748V4.72776H187.835Z" fill="#2E3034"/>
</svg>
