<svg width="283" height="24" viewBox="0 0 283 24" fill="none" xmlns="http://www.w3.org/2000/svg">
<path d="M6.81243 9.5069C6.87686 9.33278 7.12314 9.33278 7.18757 9.5069L8.04845 11.8334C8.06871 11.8881 8.11187 11.9313 8.16661 11.9516L10.4931 12.8124C10.6672 12.8769 10.6672 13.1231 10.4931 13.1876L8.16661 14.0484C8.11187 14.0687 8.06871 14.1119 8.04845 14.1666L7.18757 16.4931C7.12314 16.6672 6.87686 16.6672 6.81243 16.4931L5.95155 14.1666C5.93129 14.1119 5.88813 14.0687 5.83339 14.0484L3.5069 13.1876C3.33278 13.1231 3.33278 12.8769 3.5069 12.8124L5.83339 11.9516C5.88813 11.9313 5.93129 11.8881 5.95155 11.8334L6.81243 9.5069Z" fill="#615D5D"/>
<path d="M10.3124 7.5069C10.3769 7.33278 10.6231 7.33278 10.6876 7.5069L11.1433 8.73852C11.1636 8.79327 11.2067 8.83643 11.2615 8.85669L12.4931 9.31243C12.6672 9.37686 12.6672 9.62314 12.4931 9.68757L11.2615 10.1433C11.2067 10.1636 11.1636 10.2067 11.1433 10.2615L10.6876 11.4931C10.6231 11.6672 10.3769 11.6672 10.3124 11.4931L9.85669 10.2615C9.83643 10.2067 9.79327 10.1636 9.73852 10.1433L8.5069 9.68757C8.33278 9.62314 8.33278 9.37686 8.5069 9.31243L9.73852 8.85669C9.79327 8.83643 9.83643 8.79327 9.85669 8.73852L10.3124 7.5069Z" fill="#615D5D"/>
<path d="M26.331 10.2173H24.7372C24.6918 9.95597 24.608 9.72443 24.4858 9.52273C24.3636 9.31818 24.2116 9.14489 24.0298 9.00284C23.848 8.8608 23.6406 8.75426 23.4077 8.68324C23.1776 8.60938 22.929 8.57244 22.6619 8.57244C22.1875 8.57244 21.767 8.69176 21.4006 8.9304C21.0341 9.16619 20.7472 9.51278 20.5398 9.97017C20.3324 10.4247 20.2287 10.9801 20.2287 11.6364C20.2287 12.304 20.3324 12.8665 20.5398 13.3239C20.75 13.7784 21.0369 14.1222 21.4006 14.3551C21.767 14.5852 22.1861 14.7003 22.6577 14.7003C22.919 14.7003 23.1634 14.6662 23.3906 14.598C23.6207 14.527 23.8267 14.4233 24.0085 14.2869C24.1932 14.1506 24.348 13.983 24.473 13.7841C24.6009 13.5852 24.6889 13.358 24.7372 13.1023L26.331 13.1108C26.2713 13.5256 26.142 13.9148 25.9432 14.2784C25.7472 14.642 25.4901 14.9631 25.1719 15.2415C24.8537 15.517 24.4815 15.733 24.0554 15.8892C23.6293 16.0426 23.1563 16.1193 22.6364 16.1193C21.8693 16.1193 21.1847 15.9418 20.5824 15.5866C19.9801 15.2315 19.5057 14.7188 19.1591 14.0483C18.8125 13.3778 18.6392 12.5739 18.6392 11.6364C18.6392 10.696 18.8139 9.89205 19.1634 9.22443C19.5128 8.55398 19.9886 8.04119 20.5909 7.68608C21.1932 7.33097 21.875 7.15341 22.6364 7.15341C23.1222 7.15341 23.5739 7.22159 23.9915 7.35795C24.4091 7.49432 24.7813 7.6946 25.108 7.95881C25.4347 8.22017 25.7031 8.54119 25.9134 8.92188C26.1264 9.29972 26.2656 9.73153 26.331 10.2173ZM29.394 16H27.7065L30.779 7.27273H32.7307L35.8074 16H34.1199L31.7889 9.0625H31.7207L29.394 16ZM29.4494 12.5781H34.0517V13.848H29.4494V12.5781ZM37.5569 16V7.27273H40.8296C41.5001 7.27273 42.0626 7.3892 42.5171 7.62216C42.9745 7.85511 43.3197 8.18182 43.5526 8.60227C43.7884 9.01989 43.9063 9.5071 43.9063 10.0639C43.9063 10.6236 43.787 11.1094 43.5484 11.5213C43.3126 11.9304 42.9646 12.2472 42.5043 12.4716C42.0441 12.6932 41.4788 12.804 40.8083 12.804H38.4773V11.4915H40.5952C40.9873 11.4915 41.3083 11.4375 41.5583 11.3295C41.8083 11.2187 41.993 11.0582 42.1123 10.848C42.2344 10.6349 42.2955 10.3736 42.2955 10.0639C42.2955 9.75426 42.2344 9.49006 42.1123 9.27131C41.9901 9.04972 41.804 8.8821 41.554 8.76847C41.304 8.65199 40.9816 8.59375 40.5867 8.59375H39.1379V16H37.5569ZM42.0654 12.0455L44.2259 16H42.4617L40.3396 12.0455H42.0654ZM45.9616 16V7.27273H49.2343C49.9048 7.27273 50.4673 7.3892 50.9218 7.62216C51.3792 7.85511 51.7244 8.18182 51.9573 8.60227C52.1931 9.01989 52.311 9.5071 52.311 10.0639C52.311 10.6236 52.1917 11.1094 51.9531 11.5213C51.7173 11.9304 51.3692 12.2472 50.909 12.4716C50.4488 12.6932 49.8835 12.804 49.213 12.804H46.882V11.4915H48.9999C49.392 11.4915 49.713 11.4375 49.963 11.3295C50.213 11.2187 50.3977 11.0582 50.517 10.848C50.6391 10.6349 50.7002 10.3736 50.7002 10.0639C50.7002 9.75426 50.6391 9.49006 50.517 9.27131C50.3948 9.04972 50.2087 8.8821 49.9587 8.76847C49.7087 8.65199 49.3863 8.59375 48.9914 8.59375H47.5425V16H45.9616ZM50.4701 12.0455L52.6306 16H50.8664L48.7442 12.0455H50.4701ZM55.9472 7.27273V16H54.3663V7.27273H55.9472ZM58.2592 16V7.27273H63.9354V8.59801H59.8402V10.9673H63.6413V12.2926H59.8402V14.6747H63.9695V16H58.2592ZM70.8912 9.67188C70.8514 9.29972 70.6838 9.00994 70.3884 8.80256C70.0957 8.59517 69.7151 8.49148 69.2463 8.49148C68.9168 8.49148 68.6341 8.54119 68.3983 8.64062C68.1625 8.74006 67.9821 8.875 67.8571 9.04545C67.7321 9.21591 67.6682 9.41051 67.6653 9.62926C67.6653 9.81108 67.7065 9.96875 67.7889 10.1023C67.8741 10.2358 67.9892 10.3494 68.1341 10.4432C68.279 10.5341 68.4395 10.6108 68.6156 10.6733C68.7918 10.7358 68.9693 10.7884 69.1483 10.831L69.9665 11.0355C70.296 11.1122 70.6128 11.2159 70.9168 11.3466C71.2236 11.4773 71.4977 11.642 71.7392 11.8409C71.9835 12.0398 72.1767 12.2798 72.3187 12.5611C72.4608 12.8423 72.5318 13.1719 72.5318 13.5497C72.5318 14.0611 72.4011 14.5114 72.1398 14.9006C71.8784 15.2869 71.5006 15.5895 71.0062 15.8082C70.5148 16.0241 69.9196 16.1321 69.2207 16.1321C68.5418 16.1321 67.9523 16.027 67.4523 15.8168C66.9551 15.6065 66.5659 15.2997 66.2847 14.8963C66.0062 14.4929 65.8557 14.0014 65.833 13.4219H67.3884C67.4111 13.7259 67.5048 13.9787 67.6696 14.1804C67.8344 14.3821 68.0489 14.5327 68.3131 14.6321C68.5801 14.7315 68.8784 14.7812 69.208 14.7812C69.5517 14.7812 69.8528 14.7301 70.1114 14.6278C70.3727 14.5227 70.5773 14.3778 70.725 14.1932C70.8727 14.0057 70.948 13.7869 70.9509 13.5369C70.948 13.3097 70.8812 13.1222 70.7506 12.9744C70.6199 12.8239 70.4366 12.6989 70.2009 12.5994C69.9679 12.4972 69.6952 12.4062 69.3827 12.3267L68.3898 12.071C67.671 11.8864 67.1028 11.6065 66.6852 11.2315C66.2705 10.8537 66.0631 10.3523 66.0631 9.72727C66.0631 9.21307 66.2023 8.76278 66.4807 8.37642C66.7619 7.99006 67.144 7.69034 67.627 7.47727C68.1099 7.26136 68.6568 7.15341 69.2676 7.15341C69.8869 7.15341 70.4295 7.26136 70.8955 7.47727C71.3642 7.69034 71.7321 7.98722 71.9991 8.3679C72.2662 8.74574 72.404 9.1804 72.4125 9.67188H70.8912ZM81.0752 16H78.1178V7.27273H81.1349C82.0013 7.27273 82.7457 7.44744 83.3678 7.79688C83.9928 8.14347 84.4729 8.64205 84.8082 9.29261C85.1434 9.94318 85.311 10.7216 85.311 11.6278C85.311 12.5369 85.142 13.3182 84.8039 13.9716C84.4687 14.625 83.9843 15.1264 83.3508 15.4759C82.7201 15.8253 81.9616 16 81.0752 16ZM79.6988 14.6321H80.9985C81.6065 14.6321 82.1136 14.5213 82.5198 14.2997C82.9261 14.0753 83.2315 13.7415 83.436 13.2983C83.6406 12.8523 83.7428 12.2955 83.7428 11.6278C83.7428 10.9602 83.6406 10.4062 83.436 9.96591C83.2315 9.52273 82.9289 9.19176 82.5283 8.97301C82.1306 8.75142 81.6363 8.64062 81.0454 8.64062H79.6988V14.6321ZM88.9941 7.27273V16H87.4131V7.27273H88.9941ZM96.049 9.67188C96.0092 9.29972 95.8416 9.00994 95.5462 8.80256C95.2536 8.59517 94.8729 8.49148 94.4041 8.49148C94.0746 8.49148 93.7919 8.54119 93.5561 8.64062C93.3203 8.74006 93.1399 8.875 93.0149 9.04545C92.8899 9.21591 92.826 9.41051 92.8232 9.62926C92.8232 9.81108 92.8643 9.96875 92.9467 10.1023C93.032 10.2358 93.147 10.3494 93.2919 10.4432C93.4368 10.5341 93.5973 10.6108 93.7734 10.6733C93.9496 10.7358 94.1271 10.7884 94.3061 10.831L95.1243 11.0355C95.4538 11.1122 95.7706 11.2159 96.0746 11.3466C96.3814 11.4773 96.6555 11.642 96.897 11.8409C97.1413 12.0398 97.3345 12.2798 97.4766 12.5611C97.6186 12.8423 97.6896 13.1719 97.6896 13.5497C97.6896 14.0611 97.5589 14.5114 97.2976 14.9006C97.0362 15.2869 96.6584 15.5895 96.1641 15.8082C95.6726 16.0241 95.0774 16.1321 94.3786 16.1321C93.6996 16.1321 93.1101 16.027 92.6101 15.8168C92.1129 15.6065 91.7237 15.2997 91.4425 14.8963C91.1641 14.4929 91.0135 14.0014 90.9908 13.4219H92.5462C92.5689 13.7259 92.6626 13.9787 92.8274 14.1804C92.9922 14.3821 93.2067 14.5327 93.4709 14.6321C93.7379 14.7315 94.0362 14.7812 94.3658 14.7812C94.7095 14.7812 95.0107 14.7301 95.2692 14.6278C95.5305 14.5227 95.7351 14.3778 95.8828 14.1932C96.0305 14.0057 96.1058 13.7869 96.1087 13.5369C96.1058 13.3097 96.0391 13.1222 95.9084 12.9744C95.7777 12.8239 95.5945 12.6989 95.3587 12.5994C95.1257 12.4972 94.853 12.4062 94.5405 12.3267L93.5476 12.071C92.8288 11.8864 92.2607 11.6065 91.843 11.2315C91.4283 10.8537 91.2209 10.3523 91.2209 9.72727C91.2209 9.21307 91.3601 8.76278 91.6385 8.37642C91.9197 7.99006 92.3018 7.69034 92.7848 7.47727C93.2678 7.26136 93.8146 7.15341 94.4254 7.15341C95.0447 7.15341 95.5874 7.26136 96.0533 7.47727C96.522 7.69034 96.8899 7.98722 97.157 8.3679C97.424 8.74574 97.5618 9.1804 97.5703 9.67188H96.049ZM106.871 7.27273V16H105.465L101.352 10.0554H101.28V16H99.6991V7.27273H101.114L105.222 13.2216H105.299V7.27273H106.871ZM109.194 16V7.27273H114.87V8.59801H110.775V10.9673H114.576V12.2926H110.775V14.6747H114.904V16H109.194ZM116.486 7.27273H118.272L120.407 11.1335H120.492L122.627 7.27273H124.412L121.238 12.7443V16H119.661V12.7443L116.486 7.27273ZM129.708 16V7.27273H132.981C133.652 7.27273 134.214 7.39773 134.669 7.64773C135.126 7.89773 135.471 8.24148 135.704 8.67898C135.94 9.11364 136.058 9.60795 136.058 10.1619C136.058 10.7216 135.94 11.2187 135.704 11.6534C135.468 12.0881 135.12 12.4304 134.66 12.6804C134.2 12.9276 133.633 13.0511 132.96 13.0511H130.791V11.7514H132.747C133.139 11.7514 133.46 11.6832 133.71 11.5469C133.96 11.4105 134.145 11.223 134.264 10.9844C134.386 10.7457 134.447 10.4716 134.447 10.1619C134.447 9.85227 134.386 9.57955 134.264 9.34375C134.145 9.10795 133.958 8.92472 133.706 8.79403C133.456 8.66051 133.133 8.59375 132.738 8.59375H131.289V16H129.708ZM138.031 16V7.27273H139.612V14.6747H143.456V16H138.031ZM146.877 16H145.189L148.262 7.27273H150.213L153.29 16H151.603L149.272 9.0625H149.204L146.877 16ZM146.932 12.5781H151.535V13.848H146.932V12.5781ZM153.601 8.59801V7.27273H160.565V8.59801H157.867V16H156.299V8.59801H153.601ZM164.088 7.27273V16H162.507V7.27273H164.088ZM173.572 7.27273V16H172.165L168.053 10.0554H167.981V16H166.4V7.27273H167.815L171.923 13.2216H171.999V7.27273H173.572ZM181.396 7.27273H182.977V12.9744C182.977 13.5994 182.829 14.1491 182.534 14.6236C182.241 15.098 181.829 15.4687 181.298 15.7358C180.767 16 180.146 16.1321 179.436 16.1321C178.723 16.1321 178.1 16 177.569 15.7358C177.038 15.4687 176.626 15.098 176.333 14.6236C176.041 14.1491 175.894 13.5994 175.894 12.9744V7.27273H177.475V12.8423C177.475 13.206 177.555 13.5298 177.714 13.8139C177.876 14.098 178.103 14.321 178.396 14.483C178.688 14.642 179.035 14.7216 179.436 14.7216C179.836 14.7216 180.183 14.642 180.475 14.483C180.771 14.321 180.998 14.098 181.157 13.8139C181.316 13.5298 181.396 13.206 181.396 12.8423V7.27273ZM185.295 7.27273H187.23L189.821 13.5966H189.923L192.514 7.27273H194.449V16H192.932V10.0043H192.851L190.439 15.9744H189.305L186.893 9.99148H186.812V16H185.295V7.27273ZM207.817 10.2173H206.223C206.178 9.95597 206.094 9.72443 205.972 9.52273C205.85 9.31818 205.698 9.14489 205.516 9.00284C205.334 8.8608 205.127 8.75426 204.894 8.68324C204.663 8.60938 204.415 8.57244 204.148 8.57244C203.673 8.57244 203.253 8.69176 202.886 8.9304C202.52 9.16619 202.233 9.51278 202.026 9.97017C201.818 10.4247 201.715 10.9801 201.715 11.6364C201.715 12.304 201.818 12.8665 202.026 13.3239C202.236 13.7784 202.523 14.1222 202.886 14.3551C203.253 14.5852 203.672 14.7003 204.144 14.7003C204.405 14.7003 204.649 14.6662 204.877 14.598C205.107 14.527 205.313 14.4233 205.494 14.2869C205.679 14.1506 205.834 13.983 205.959 13.7841C206.087 13.5852 206.175 13.358 206.223 13.1023L207.817 13.1108C207.757 13.5256 207.628 13.9148 207.429 14.2784C207.233 14.642 206.976 14.9631 206.658 15.2415C206.34 15.517 205.967 15.733 205.541 15.8892C205.115 16.0426 204.642 16.1193 204.122 16.1193C203.355 16.1193 202.671 15.9418 202.068 15.5866C201.466 15.2315 200.992 14.7188 200.645 14.0483C200.298 13.3778 200.125 12.5739 200.125 11.6364C200.125 10.696 200.3 9.89205 200.649 9.22443C200.999 8.55398 201.475 8.04119 202.077 7.68608C202.679 7.33097 203.361 7.15341 204.122 7.15341C204.608 7.15341 205.06 7.22159 205.477 7.35795C205.895 7.49432 206.267 7.6946 206.594 7.95881C206.921 8.22017 207.189 8.54119 207.399 8.92188C207.612 9.29972 207.752 9.73153 207.817 10.2173ZM217.663 11.6364C217.663 12.5767 217.487 13.3821 217.135 14.0526C216.785 14.7202 216.308 15.2315 215.703 15.5866C215.1 15.9418 214.417 16.1193 213.653 16.1193C212.889 16.1193 212.204 15.9418 211.599 15.5866C210.997 15.2287 210.52 14.7159 210.167 14.0483C209.818 13.3778 209.643 12.5739 209.643 11.6364C209.643 10.696 209.818 9.89205 210.167 9.22443C210.52 8.55398 210.997 8.04119 211.599 7.68608C212.204 7.33097 212.889 7.15341 213.653 7.15341C214.417 7.15341 215.1 7.33097 215.703 7.68608C216.308 8.04119 216.785 8.55398 217.135 9.22443C217.487 9.89205 217.663 10.696 217.663 11.6364ZM216.074 11.6364C216.074 10.9744 215.97 10.4162 215.762 9.96165C215.558 9.50426 215.274 9.15909 214.91 8.92614C214.547 8.69034 214.127 8.57244 213.653 8.57244C213.179 8.57244 212.76 8.69034 212.396 8.92614C212.032 9.15909 211.747 9.50426 211.539 9.96165C211.335 10.4162 211.233 10.9744 211.233 11.6364C211.233 12.2983 211.335 12.858 211.539 13.3153C211.747 13.7699 212.032 14.1151 212.396 14.3509C212.76 14.5838 213.179 14.7003 213.653 14.7003C214.127 14.7003 214.547 14.5838 214.91 14.3509C215.274 14.1151 215.558 13.7699 215.762 13.3153C215.97 12.858 216.074 12.2983 216.074 11.6364ZM219.758 16V7.27273H221.339V14.6747H225.182V16H219.758ZM227.155 16V7.27273H228.736V14.6747H232.579V16H227.155ZM234.551 16V7.27273H240.228V8.59801H236.132V10.9673H239.934V12.2926H236.132V14.6747H240.262V16H234.551ZM249.911 10.2173H248.317C248.271 9.95597 248.188 9.72443 248.065 9.52273C247.943 9.31818 247.791 9.14489 247.61 9.00284C247.428 8.8608 247.22 8.75426 246.987 8.68324C246.757 8.60938 246.509 8.57244 246.242 8.57244C245.767 8.57244 245.347 8.69176 244.98 8.9304C244.614 9.16619 244.327 9.51278 244.119 9.97017C243.912 10.4247 243.808 10.9801 243.808 11.6364C243.808 12.304 243.912 12.8665 244.119 13.3239C244.33 13.7784 244.617 14.1222 244.98 14.3551C245.347 14.5852 245.766 14.7003 246.237 14.7003C246.499 14.7003 246.743 14.6662 246.97 14.598C247.2 14.527 247.406 14.4233 247.588 14.2869C247.773 14.1506 247.928 13.983 248.053 13.7841C248.181 13.5852 248.269 13.358 248.317 13.1023L249.911 13.1108C249.851 13.5256 249.722 13.9148 249.523 14.2784C249.327 14.642 249.07 14.9631 248.752 15.2415C248.433 15.517 248.061 15.733 247.635 15.8892C247.209 16.0426 246.736 16.1193 246.216 16.1193C245.449 16.1193 244.764 15.9418 244.162 15.5866C243.56 15.2315 243.085 14.7188 242.739 14.0483C242.392 13.3778 242.219 12.5739 242.219 11.6364C242.219 10.696 242.394 9.89205 242.743 9.22443C243.092 8.55398 243.568 8.04119 244.171 7.68608C244.773 7.33097 245.455 7.15341 246.216 7.15341C246.702 7.15341 247.154 7.22159 247.571 7.35795C247.989 7.49432 248.361 7.6946 248.688 7.95881C249.014 8.22017 249.283 8.54119 249.493 8.92188C249.706 9.29972 249.845 9.73153 249.911 10.2173ZM251.575 8.59801V7.27273H258.538V8.59801H255.841V16H254.272V8.59801H251.575ZM262.061 7.27273V16H260.48V7.27273H262.061ZM272.172 11.6364C272.172 12.5767 271.995 13.3821 271.643 14.0526C271.294 14.7202 270.816 15.2315 270.211 15.5866C269.609 15.9418 268.926 16.1193 268.162 16.1193C267.397 16.1193 266.713 15.9418 266.108 15.5866C265.505 15.2287 265.028 14.7159 264.676 14.0483C264.326 13.3778 264.152 12.5739 264.152 11.6364C264.152 10.696 264.326 9.89205 264.676 9.22443C265.028 8.55398 265.505 8.04119 266.108 7.68608C266.713 7.33097 267.397 7.15341 268.162 7.15341C268.926 7.15341 269.609 7.33097 270.211 7.68608C270.816 8.04119 271.294 8.55398 271.643 9.22443C271.995 9.89205 272.172 10.696 272.172 11.6364ZM270.582 11.6364C270.582 10.9744 270.478 10.4162 270.271 9.96165C270.066 9.50426 269.782 9.15909 269.419 8.92614C269.055 8.69034 268.636 8.57244 268.162 8.57244C267.687 8.57244 267.268 8.69034 266.905 8.92614C266.541 9.15909 266.255 9.50426 266.048 9.96165C265.843 10.4162 265.741 10.9744 265.741 11.6364C265.741 12.2983 265.843 12.858 266.048 13.3153C266.255 13.7699 266.541 14.1151 266.905 14.3509C267.268 14.5838 267.687 14.7003 268.162 14.7003C268.636 14.7003 269.055 14.5838 269.419 14.3509C269.782 14.1151 270.066 13.7699 270.271 13.3153C270.478 12.858 270.582 12.2983 270.582 11.6364ZM281.438 7.27273V16H280.032L275.92 10.0554H275.847V16H274.266V7.27273H275.681L279.789 13.2216H279.866V7.27273H281.438Z" fill="#5B5E63"/>
</svg>
