<svg width="87" height="16" viewBox="0 0 87 16" fill="none" xmlns="http://www.w3.org/2000/svg">
<rect y="0.000366211" width="87" height="16" rx="8" fill="#1D1B1B"/>
<path d="M10.8124 5.50727C10.8769 5.33314 11.1231 5.33314 11.1876 5.50727L12.0484 7.83375C12.0687 7.8885 12.1119 7.93166 12.1666 7.95192L14.4931 8.8128C14.6672 8.87723 14.6672 9.12351 14.4931 9.18794L12.1666 10.0488C12.1119 10.0691 12.0687 10.1122 12.0484 10.167L11.1876 12.4935C11.1231 12.6676 10.8769 12.6676 10.8124 12.4935L9.95155 10.167C9.93129 10.1122 9.88813 10.0691 9.83339 10.0488L7.5069 9.18794C7.33278 9.12351 7.33278 8.87723 7.5069 8.8128L9.83339 7.95192C9.88813 7.93166 9.93129 7.8885 9.95155 7.83375L10.8124 5.50727Z" fill="white"/>
<path d="M14.3124 3.50727C14.3769 3.33314 14.6231 3.33314 14.6876 3.50727L15.1433 4.73889C15.1636 4.79363 15.2067 4.8368 15.2615 4.85705L16.4931 5.3128C16.6672 5.37723 16.6672 5.6235 16.4931 5.68794L15.2615 6.14368C15.2067 6.16394 15.1636 6.2071 15.1433 6.26184L14.6876 7.49346C14.6231 7.66759 14.3769 7.66759 14.3124 7.49346L13.8567 6.26184C13.8364 6.2071 13.7933 6.16394 13.7385 6.14368L12.5069 5.68794C12.3328 5.62351 12.3328 5.37723 12.5069 5.3128L13.7385 4.85705C13.7933 4.8368 13.8364 4.79363 13.8567 4.73889L14.3124 3.50727Z" fill="white"/>
<path d="M22.799 12.0004V4.72764H27.3089V5.67224H23.8963V7.88815H26.9858V8.8292H23.8963V12.0004H22.799ZM29.6584 12.0004V4.72764H34.218V5.67224H30.7557V7.88815H33.9801V8.8292H30.7557V11.0558H34.2607V12.0004H29.6584ZM37.2981 12.0004H36.1333L38.7505 4.72764H40.0183L42.6355 12.0004H41.4707L39.4146 6.04866H39.3578L37.2981 12.0004ZM37.4934 9.15235H41.2718V10.0757H37.4934V9.15235ZM43.4677 5.67224V4.72764H49.0962V5.67224H46.8271V12.0004H45.7333V5.67224H43.4677ZM56.0169 4.72764H57.1177V9.51102C57.1177 10.02 56.9982 10.471 56.7591 10.864C56.5199 11.2546 56.1838 11.5624 55.7505 11.7873C55.3173 12.0098 54.8095 12.1211 54.2271 12.1211C53.6471 12.1211 53.1404 12.0098 52.7072 11.7873C52.274 11.5624 51.9378 11.2546 51.6987 10.864C51.4596 10.471 51.34 10.02 51.34 9.51102V4.72764H52.4373V9.42224C52.4373 9.75131 52.5095 10.0437 52.6539 10.2994C52.8007 10.5551 53.0079 10.7563 53.2754 10.9031C53.5429 11.0475 53.8601 11.1197 54.2271 11.1197C54.5964 11.1197 54.9148 11.0475 55.1824 10.9031C55.4522 10.7563 55.6582 10.5551 55.8002 10.2994C55.9447 10.0437 56.0169 9.75131 56.0169 9.42224V4.72764ZM59.7131 12.0004V4.72764H62.3054C62.8688 4.72764 63.3364 4.8247 63.7081 5.01883C64.0821 5.21296 64.3615 5.48166 64.5462 5.82494C64.7308 6.16585 64.8232 6.56003 64.8232 7.00747C64.8232 7.45254 64.7296 7.84435 64.5426 8.18289C64.358 8.51907 64.0786 8.78067 63.7045 8.9677C63.3329 9.15472 62.8653 9.24824 62.3018 9.24824H60.3381V8.30363H62.2024C62.5575 8.30363 62.8464 8.25273 63.0689 8.15093C63.2938 8.04913 63.4583 7.90117 63.5625 7.70704C63.6667 7.51291 63.7188 7.27972 63.7188 7.00747C63.7188 6.73285 63.6655 6.49492 63.5589 6.29369C63.4548 6.09246 63.2902 5.93858 63.0653 5.83204C62.8428 5.72314 62.5504 5.66869 62.1882 5.66869H60.8104V12.0004H59.7131ZM63.3033 8.71912L65.1001 12.0004H63.8501L62.0888 8.71912H63.3033ZM67.1584 12.0004V4.72764H71.718V5.67224H68.2557V7.88815H71.4801V8.8292H68.2557V11.0558H71.7607V12.0004H67.1584ZM76.5382 12.0004H74.1838V4.72764H76.6127C77.3253 4.72764 77.9373 4.87324 78.4487 5.16443C78.96 5.45325 79.3519 5.86874 79.6241 6.41088C79.8987 6.95065 80.036 7.59814 80.036 8.35335C80.036 9.11092 79.8975 9.76197 79.6206 10.3065C79.3459 10.851 78.9482 11.27 78.4274 11.5636C77.9065 11.8548 77.2768 12.0004 76.5382 12.0004ZM75.2811 11.0416H76.4778C77.0318 11.0416 77.4922 10.9374 77.8592 10.7291C78.2261 10.5184 78.5008 10.2141 78.6831 9.81642C78.8654 9.41632 78.9565 8.92863 78.9565 8.35335C78.9565 7.7828 78.8654 7.29866 78.6831 6.90093C78.5031 6.50321 78.2344 6.20136 77.877 5.99539C77.5195 5.78943 77.0756 5.68645 76.5453 5.68645H75.2811V11.0416Z" fill="white"/>
</svg>
