<svg width="85" height="24" viewBox="0 0 85 24" fill="none" xmlns="http://www.w3.org/2000/svg">
<path d="M7.99995 7.20013L9.07762 10.5169H12.565L9.74365 12.5667L10.8213 15.8834L7.99995 13.8336L5.17858 15.8834L6.25625 12.5667L3.43488 10.5169H6.92228L7.99995 7.20013Z" fill="#AC634D"/>
<path d="M18.8608 16.0001V7.27285H24.4517V8.59813H20.4418V10.9675H24.0682V12.2927H20.4418V16.0001H18.8608ZM26.492 16.0001V7.27285H32.1682V8.59813H28.073V10.9675H31.8741V12.2927H28.073V14.6748H32.2023V16.0001H26.492ZM35.5018 16.0001H33.8143L36.8868 7.27285H38.8385L41.9152 16.0001H40.2277L37.8967 9.06262H37.8286L35.5018 16.0001ZM35.5572 12.5782H40.1595V13.8481H35.5572V12.5782ZM42.2265 8.59813V7.27285H49.1896V8.59813H46.4921V16.0001H44.9239V8.59813H42.2265ZM56.6333 7.27285H58.2143V12.9746C58.2143 13.5996 58.0665 14.1493 57.7711 14.6237C57.4785 15.0981 57.0666 15.4689 56.5353 15.7359C56.0041 16.0001 55.3833 16.1322 54.6731 16.1322C53.96 16.1322 53.3379 16.0001 52.8066 15.7359C52.2754 15.4689 51.8634 15.0981 51.5708 14.6237C51.2782 14.1493 51.1319 13.5996 51.1319 12.9746V7.27285H52.7129V12.8425C52.7129 13.2061 52.7924 13.53 52.9515 13.814C53.1134 14.0981 53.3407 14.3211 53.6333 14.4831C53.9259 14.6422 54.2725 14.7217 54.6731 14.7217C55.0737 14.7217 55.4202 14.6422 55.7129 14.4831C56.0083 14.3211 56.2356 14.0981 56.3947 13.814C56.5538 13.53 56.6333 13.2061 56.6333 12.8425V7.27285ZM60.5327 16.0001V7.27285H63.8054C64.4759 7.27285 65.0384 7.38933 65.4929 7.62228C65.9503 7.85524 66.2955 8.18194 66.5284 8.60239C66.7642 9.02001 66.8821 9.50722 66.8821 10.064C66.8821 10.6237 66.7628 11.1095 66.5241 11.5214C66.2884 11.9305 65.9403 12.2473 65.4801 12.4717C65.0199 12.6933 64.4545 12.8041 63.7841 12.8041H61.4531V11.4916H63.571C63.9631 11.4916 64.2841 11.4376 64.5341 11.3297C64.7841 11.2189 64.9688 11.0584 65.0881 10.8481C65.2102 10.6351 65.2713 10.3737 65.2713 10.064C65.2713 9.75438 65.2102 9.49018 65.0881 9.27143C64.9659 9.04984 64.7798 8.88222 64.5298 8.76859C64.2798 8.65211 63.9574 8.59387 63.5625 8.59387H62.1136V16.0001H60.5327ZM65.0412 12.0456L67.2017 16.0001H65.4375L63.3153 12.0456H65.0412ZM68.9374 16.0001V7.27285H74.6135V8.59813H70.5183V10.9675H74.3195V12.2927H70.5183V14.6748H74.6476V16.0001H68.9374ZM79.7838 16.0001H76.8264V7.27285H79.8435C80.7099 7.27285 81.4543 7.44757 82.0764 7.797C82.7014 8.14359 83.1815 8.64217 83.5168 9.29274C83.852 9.9433 84.0196 10.7217 84.0196 11.628C84.0196 12.5371 83.8506 13.3183 83.5125 13.9717C83.1773 14.6251 82.6929 15.1265 82.0594 15.476C81.4287 15.8254 80.6702 16.0001 79.7838 16.0001ZM78.4074 14.6322H79.7071C80.3151 14.6322 80.8222 14.5214 81.2284 14.2998C81.6347 14.0754 81.9401 13.7416 82.1446 13.2984C82.3491 12.8524 82.4514 12.2956 82.4514 11.628C82.4514 10.9603 82.3491 10.4064 82.1446 9.96603C81.9401 9.52285 81.6375 9.19188 81.2369 8.97313C80.8392 8.75154 80.3449 8.64075 79.754 8.64075H78.4074V14.6322Z" fill="#AC634D"/>
</svg>
