<svg width="77" height="20" viewBox="0 0 77 20" fill="none" xmlns="http://www.w3.org/2000/svg">
<path d="M8.47554 5.04593C8.4086 4.83992 8.21663 4.70044 8.00001 4.70044C7.7834 4.70044 7.59142 4.83992 7.52448 5.04593L6.55907 8.01716H3.43494C3.21833 8.01716 3.02635 8.15664 2.95941 8.36265C2.89248 8.56866 2.9658 8.79434 3.14105 8.92167L5.66852 10.758L4.70311 13.7292C4.63618 13.9352 4.70951 14.1609 4.88475 14.2882C5.05999 14.4156 5.29729 14.4156 5.47254 14.2882L8.00001 12.4519L10.5275 14.2882C10.7027 14.4156 10.94 14.4156 11.1153 14.2882C11.2905 14.1609 11.3638 13.9352 11.2969 13.7292L10.3315 10.758L12.859 8.92167C13.0342 8.79434 13.1075 8.56866 13.0406 8.36265C12.9737 8.15664 12.7817 8.01716 12.5651 8.01716H9.44095L8.47554 5.04593Z" stroke="#AC634D" stroke-linejoin="round"/>
<path d="M18.799 14.0005V6.72776H23.3089V7.67236H19.8963V9.88827H22.9858V10.8293H19.8963V14.0005H18.799ZM25.6584 14.0005V6.72776H30.218V7.67236H26.7557V9.88827H29.9801V10.8293H26.7557V13.0559H30.2607V14.0005H25.6584ZM33.2981 14.0005H32.1333L34.7505 6.72776H36.0183L38.6355 14.0005H37.4707L35.4146 8.04878H35.3578L33.2981 14.0005ZM33.4934 11.1525H37.2718V12.0758H33.4934V11.1525ZM39.4677 7.67236V6.72776H45.0962V7.67236H42.8271V14.0005H41.7333V7.67236H39.4677ZM52.0169 6.72776H53.1177V11.5111C53.1177 12.0201 52.9982 12.4711 52.7591 12.8641C52.5199 13.2547 52.1838 13.5625 51.7505 13.7874C51.3173 14.01 50.8095 14.1212 50.2271 14.1212C49.6471 14.1212 49.1404 14.01 48.7072 13.7874C48.274 13.5625 47.9378 13.2547 47.6987 12.8641C47.4596 12.4711 47.34 12.0201 47.34 11.5111V6.72776H48.4373V11.4224C48.4373 11.7514 48.5095 12.0438 48.6539 12.2995C48.8007 12.5552 49.0079 12.7564 49.2754 12.9032C49.5429 13.0476 49.8601 13.1198 50.2271 13.1198C50.5964 13.1198 50.9148 13.0476 51.1824 12.9032C51.4522 12.7564 51.6582 12.5552 51.8002 12.2995C51.9447 12.0438 52.0169 11.7514 52.0169 11.4224V6.72776ZM55.7131 14.0005V6.72776H58.3054C58.8688 6.72776 59.3364 6.82483 59.7081 7.01895C60.0821 7.21308 60.3615 7.48179 60.5462 7.82506C60.7308 8.16597 60.8232 8.56015 60.8232 9.00759C60.8232 9.45267 60.7296 9.84447 60.5426 10.183C60.358 10.5192 60.0786 10.7808 59.7045 10.9678C59.3329 11.1548 58.8653 11.2484 58.3018 11.2484H56.3381V10.3038H58.2024C58.5575 10.3038 58.8464 10.2529 59.0689 10.1511C59.2938 10.0493 59.4583 9.90129 59.5625 9.70716C59.6667 9.51304 59.7188 9.27984 59.7188 9.00759C59.7188 8.73297 59.6655 8.49504 59.5589 8.29381C59.4548 8.09258 59.2902 7.9387 59.0653 7.83216C58.8428 7.72326 58.5504 7.66881 58.1882 7.66881H56.8104V14.0005H55.7131ZM59.3033 10.7192L61.1001 14.0005H59.8501L58.0888 10.7192H59.3033ZM63.1584 14.0005V6.72776H67.718V7.67236H64.2557V9.88827H67.4801V10.8293H64.2557V13.0559H67.7607V14.0005H63.1584ZM72.5382 14.0005H70.1838V6.72776H72.6127C73.3253 6.72776 73.9373 6.87336 74.4487 7.16455C74.96 7.45338 75.3519 7.86886 75.6241 8.411C75.8987 8.95077 76.036 9.59826 76.036 10.3535C76.036 11.111 75.8975 11.7621 75.6206 12.3066C75.3459 12.8511 74.9482 13.2701 74.4274 13.5637C73.9065 13.8549 73.2768 14.0005 72.5382 14.0005ZM71.2811 13.0417H72.4778C73.0318 13.0417 73.4922 12.9375 73.8592 12.7292C74.2261 12.5185 74.5008 12.2143 74.6831 11.8165C74.8654 11.4164 74.9565 10.9288 74.9565 10.3535C74.9565 9.78292 74.8654 9.29878 74.6831 8.90106C74.5031 8.50333 74.2344 8.20148 73.877 7.99552C73.5195 7.78955 73.0756 7.68657 72.5453 7.68657H71.2811V13.0417Z" fill="#AC634D"/>
</svg>
