<svg width="20" height="20" viewBox="0 0 20 20" fill="none" xmlns="http://www.w3.org/2000/svg">
<path d="M14.5001 9.50073H18.5001V5.50073H6.00009C5.17166 5.50073 4.50009 6.17231 4.50009 7.00073V7.00073M14.5001 10.0007V10.0007C14.5001 9.17231 13.8285 8.50073 13.0001 8.50073H6.00009C5.17166 8.50073 4.50009 7.82916 4.50009 7.00073V7.00073M14.5001 10.0007V10.0007C14.5001 10.8292 13.8285 11.5007 13.0001 11.5007H4.50009M14.5001 10.0007V13.5007C14.5001 14.6053 13.6047 15.5007 12.5001 15.5007H1.50009V11.5007H4.50009M4.50009 11.5007V7.00073" stroke="#AC634D" stroke-linecap="round" stroke-linejoin="round"/>
<path d="M5.5 12.0007V15.0007" stroke="#AC634D" stroke-linecap="round" stroke-linejoin="round"/>
<path d="M8.5 11.5007V13.5007" stroke="#AC634D" stroke-linecap="round" stroke-linejoin="round"/>
<path d="M10.5 11.5007V12.5007" stroke="#AC634D" stroke-linecap="round" stroke-linejoin="round"/>
<path d="M16.5 5.50073V7.50073" stroke="#AC634D" stroke-linecap="round" stroke-linejoin="round"/>
<path d="M14.5 5.50073V6.50073" stroke="#AC634D" stroke-linecap="round" stroke-linejoin="round"/>
<path d="M12.5 5.50073V7.50073" stroke="#AC634D" stroke-linecap="round" stroke-linejoin="round"/>
<path d="M10.5 5.50073V6.50073" stroke="#AC634D" stroke-linecap="round" stroke-linejoin="round"/>
<path d="M6.5 5.50073V6.50073" stroke="#AC634D" stroke-linecap="round" stroke-linejoin="round"/>
<path d="M8.5 5.50073V7.50073" stroke="#AC634D" stroke-linecap="round" stroke-linejoin="round"/>
<path d="M12.5 11.5007V13.5007" stroke="#AC634D" stroke-linecap="round" stroke-linejoin="round"/>
<path d="M3.5 13.5007V13.4907" stroke="#AC634D" stroke-linecap="round" stroke-linejoin="round"/>
</svg>
