<svg width="6" height="6" viewBox="0 0 6 6" fill="none" xmlns="http://www.w3.org/2000/svg">
<path d="M2.9375 5.1308C2.53646 5.1308 2.17022 5.03303 1.83878 4.83748C1.50734 4.63862 1.24219 4.37346 1.04332 4.04203C0.847775 3.71059 0.75 3.34435 0.75 2.9433C0.75 2.53895 0.847775 2.17271 1.04332 1.84458C1.24219 1.51314 1.50734 1.24965 1.83878 1.0541C2.17022 0.855235 2.53646 0.755804 2.9375 0.755804C3.34186 0.755804 3.7081 0.855235 4.03622 1.0541C4.36766 1.24965 4.63116 1.51314 4.8267 1.84458C5.02557 2.17271 5.125 2.53895 5.125 2.9433C5.125 3.34435 5.02557 3.71059 4.8267 4.04203C4.63116 4.37346 4.36766 4.63862 4.03622 4.83748C3.7081 5.03303 3.34186 5.1308 2.9375 5.1308Z" fill="#1D1B1B"/>
</svg>
