<svg width="16" height="16" viewBox="0 0 16 16" fill="none" xmlns="http://www.w3.org/2000/svg">
<path d="M6.81243 5.50715C6.87686 5.33302 7.12314 5.33302 7.18757 5.50715L8.04845 7.83363C8.06871 7.88838 8.11187 7.93154 8.16661 7.9518L10.4931 8.81267C10.6672 8.87711 10.6672 9.12338 10.4931 9.18781L8.16661 10.0487C8.11187 10.0689 8.06871 10.1121 8.04845 10.1669L7.18757 12.4933C7.12314 12.6675 6.87686 12.6675 6.81243 12.4933L5.95155 10.1669C5.93129 10.1121 5.88813 10.0689 5.83339 10.0487L3.5069 9.18781C3.33278 9.12338 3.33278 8.87711 3.5069 8.81267L5.83339 7.9518C5.88813 7.93154 5.93129 7.88838 5.95155 7.83363L6.81243 5.50715Z" fill="#615D5D"/>
<path d="M10.3124 3.50715C10.3769 3.33302 10.6231 3.33302 10.6876 3.50715L11.1433 4.73877C11.1636 4.79351 11.2067 4.83667 11.2615 4.85693L12.4931 5.31267C12.6672 5.37711 12.6672 5.62338 12.4931 5.68781L11.2615 6.14356C11.2067 6.16381 11.1636 6.20698 11.1433 6.26172L10.6876 7.49334C10.6231 7.66747 10.3769 7.66747 10.3124 7.49334L9.85669 6.26172C9.83643 6.20698 9.79327 6.16381 9.73852 6.14356L8.5069 5.68781C8.33278 5.62338 8.33278 5.37711 8.5069 5.31267L9.73852 4.85693C9.79327 4.83667 9.83643 4.79351 9.85669 4.73877L10.3124 3.50715Z" fill="#615D5D"/>
</svg>
