<svg width="270" height="30" viewBox="0 0 270 30" fill="none" xmlns="http://www.w3.org/2000/svg">
<path d="M7.38367 18.3682C5.89836 22.1257 4.82593 25.429 4.82593 26.5913C4.80302 26.7386 4.81495 26.8893 4.86075 27.031C4.90654 27.1727 4.9849 27.3015 5.08944 27.4069C5.19398 27.5123 5.32175 27.5914 5.46232 27.6375C5.60289 27.6837 5.7523 27.6957 5.89836 27.6726H8.67059V28.8296H0V27.6672C2.00544 27.6672 2.14486 27.6672 2.47731 26.8076L13.282 0.975764C14.002 0.733961 14.7467 0.574375 15.502 0.5C15.6682 0.5 15.754 0.629754 15.754 0.802759C15.754 1.3434 15.0301 1.22987 15.0301 2.13274C15.0301 3.85738 21.0518 21.1633 22.6336 24.9532C23.2288 26.3751 23.7865 27.6564 24.7248 27.6564H26.3013V28.8296H17.5074V27.6672H19.6523C20.3761 27.6672 20.4619 27.5807 20.4619 27.2347C20.4619 26.8887 18.7675 22.0283 17.4216 18.3682H7.38367ZM12.9389 4.82513C10.7243 9.97204 9.43737 13.0699 7.94133 16.9463H16.8639L12.9389 4.82513ZM27.4488 6.44705H34.9558V7.39858H33.5617C33.1434 7.39858 32.7573 7.39858 32.7573 7.75V22.7312C32.7573 27.6672 33.004 27.6672 34.189 27.6672H36.4304C38.1409 27.6672 43.3476 27.6672 44.0446 25.9372C44.1144 25.7642 44.1841 25.5858 44.4307 25.5858C44.4631 25.585 44.4952 25.5909 44.5252 25.6032C44.5552 25.6155 44.5824 25.6339 44.605 25.6572C44.6276 25.6805 44.6452 25.7083 44.6568 25.7388C44.6683 25.7693 44.6735 25.8019 44.672 25.8345C44.672 26.0453 44.2538 27.3482 43.8034 28.8296H28.355V27.8781H29.7867C30.1728 27.8781 30.4891 27.8078 30.4891 27.5267V12.1292C30.4891 8.11223 30.3819 7.4094 29.5079 7.4094H27.4488V6.44705ZM45.5782 6.44705H53.0852V7.39858H51.6964C51.2782 7.39858 50.8921 7.39858 50.8921 7.75V22.7312C50.8921 27.6672 51.1388 27.6672 52.3238 27.6672H54.5652C56.2757 27.6672 61.4823 27.6672 62.1794 25.9372C62.2491 25.7642 62.3188 25.5858 62.5655 25.5858C62.5978 25.585 62.63 25.5909 62.66 25.6032C62.69 25.6155 62.7171 25.6339 62.7398 25.6572C62.7624 25.6805 62.78 25.7083 62.7915 25.7388C62.8031 25.7693 62.8083 25.8019 62.8068 25.8345C62.8068 26.0453 62.3885 27.3482 61.9328 28.8296H46.4898V27.8781H47.9215C48.3076 27.8781 48.6239 27.8078 48.6239 27.5267V12.1292C48.6239 8.11223 48.5167 7.4094 47.6426 7.4094H45.5782V6.44705ZM78.9844 6.44705H85.3814V7.39858H83.9497C83.5636 7.39858 83.2473 7.46887 83.2473 7.75V20.5848C83.2473 27.3158 78.4964 29.5 74.1638 29.5C70.9841 29.5 66.0562 28.1268 66.0562 21.7796V12.1292C66.0562 8.11223 65.9544 7.4094 65.0803 7.4094H63.0159V6.44705H70.5229V7.39858H69.1288C68.7051 7.39858 68.3244 7.39858 68.3244 7.75V21.266C68.3244 27.3591 72.5873 28.17 74.759 28.17C77.0647 28.17 82.0944 27.4672 82.0944 20.3848V12.5509C82.0944 7.51212 81.7137 7.4094 80.9416 7.4094H78.9844V6.44705ZM90.6899 12.1292C90.6899 8.11223 90.5827 7.4094 89.714 7.4094H87.6496V6.44705H96.8778C101.42 6.44705 103.757 9.29623 103.757 12.2589C103.757 15.7082 101.28 17.6654 98.1004 18.2817C101.559 23.288 104.111 26.5643 105.227 27.4726C105.715 27.8619 106.101 27.8619 107.216 27.8619V28.8296H103.618C102.883 28.8296 102.674 28.5485 95.8269 18.7142H92.9635V22.7312C92.9635 27.7699 93.3442 27.8781 94.1163 27.8781H96.0735V28.8296H88.5665V27.8781H90.0036C90.3843 27.8781 90.7007 27.8078 90.7007 27.5267L90.6899 12.1292ZM92.9635 17.7681H94.9099C98.02 17.7681 101.479 16.6868 101.479 12.8699C101.479 11.4588 100.814 7.62025 95.7464 7.62025H94.245C93.5801 7.62025 92.9528 7.62025 92.9528 7.97166L92.9635 17.7681ZM107.704 6.44705H124.128L123.78 8.87453C123.71 9.29623 123.71 9.47465 123.463 9.47465C123.217 9.47465 123.152 9.2638 123.115 9.05295C123.045 8.5123 122.627 8.27442 122.069 8.10142C120.6 7.64187 118.503 7.60943 116.895 7.60943H114.31C113.645 7.60943 113.018 7.60943 113.018 7.96085V16.0056H116.359C121.356 16.0056 121.565 15.6163 121.565 14.8432V13.4321H122.439V19.2819H121.565V17.9789C121.565 17.168 121.565 17.0598 117.479 17.0598H113.039V22.7312C113.039 27.6672 113.286 27.6672 114.471 27.6672H116.707C118.423 27.6672 123.63 27.6672 124.327 25.9372C124.396 25.7642 124.466 25.5858 124.713 25.5858C124.745 25.585 124.777 25.5909 124.807 25.6032C124.837 25.6155 124.864 25.6339 124.887 25.6572C124.91 25.6805 124.927 25.7083 124.939 25.7388C124.95 25.7693 124.956 25.8019 124.954 25.8345C124.954 26.0453 124.536 27.3482 124.08 28.8296H108.637V27.8781H110.069C110.455 27.8781 110.766 27.8078 110.766 27.5267V12.1292C110.766 8.11223 110.664 7.4094 109.79 7.4094H107.725L107.704 6.44705ZM142.134 8.42039C142.134 3.51137 142.006 2.65175 140.939 2.65175H138.418V1.48937H149.223C156.194 1.48937 156.778 5.8145 156.778 7.47427C156.778 10.4478 154.516 12.4265 152.038 13.4592V13.5457C155.754 14.4053 158.612 16.9463 158.612 20.9092C158.612 24.8721 155.625 28.8296 148.58 28.8296H139.528V27.6672H141.276C141.748 27.6672 142.134 27.5807 142.134 27.2347V8.42039ZM144.907 12.8104C148.408 12.8104 149.223 12.8537 150.628 13.1997C152.725 11.8643 154.172 10.6586 154.172 8.03654C154.172 4.5494 151.229 2.91126 149.732 2.91126H146.488C145.679 2.91126 144.907 2.91126 144.907 3.34377V12.8104ZM144.907 21.3796C144.907 27.4077 145.207 27.4077 146.66 27.4077H148.966C154.773 27.4077 155.84 23.7043 155.84 21.4607C155.84 18.6169 154.516 14.0971 147.212 14.0971H144.907V21.3796ZM164.167 12.1292C164.167 8.11223 164.06 7.4094 163.186 7.4094H161.127V6.44705H170.35C174.892 6.44705 177.235 9.29623 177.235 12.2589C177.235 15.7082 174.752 17.6654 171.573 18.2817C175.031 23.288 177.583 26.5643 178.704 27.4726C179.192 27.8619 179.573 27.8619 180.694 27.8619V28.8296H177.096C176.361 28.8296 176.152 28.5485 169.299 18.7142H166.436V22.7312C166.436 27.7699 166.822 27.8781 167.588 27.8781H169.546V28.8296H162.039V27.8781H163.47C163.856 27.8781 164.173 27.8078 164.173 27.5267L164.167 12.1292ZM166.436 17.7681H168.371C171.481 17.7681 174.94 16.6868 174.94 12.8699C174.94 11.4588 174.275 7.62025 169.213 7.62025H167.728C167.063 7.62025 166.436 7.62025 166.436 7.97166V17.7681ZM186.806 22.7312C186.806 27.7699 187.192 27.8781 187.959 27.8781H189.916V28.8296H182.409V27.8781H183.841C184.227 27.8781 184.538 27.8078 184.538 27.5267V12.1292C184.538 8.11223 184.436 7.4094 183.562 7.4094H181.498V6.44705H189.005V7.39858H187.605C187.187 7.39858 186.801 7.39858 186.801 7.75L186.806 22.7312ZM195.23 12.1292C195.23 8.11223 195.123 7.4094 194.249 7.4094H192.185V6.44705H202.743C209.901 6.44705 213.504 11.6264 213.504 17.2599C213.504 21.8067 210.882 28.8188 202.008 28.8188H193.096V27.8781H194.528C194.914 27.8781 195.23 27.8078 195.23 27.5267V12.1292ZM197.498 22.7312C197.498 27.6672 197.745 27.6672 198.93 27.6672H201.799C204.802 27.6672 211.129 27.0671 211.129 18.0817C211.129 9.0962 203.788 7.62025 202.078 7.62025H198.791C198.126 7.62025 197.498 7.62025 197.498 7.97166V22.7312ZM220.872 20.2658C219.649 23.3313 218.775 26.0453 218.775 26.9914C218.758 27.1111 218.769 27.2332 218.807 27.348C218.845 27.4627 218.909 27.567 218.994 27.6525C219.079 27.7381 219.182 27.8025 219.296 27.8407C219.41 27.8789 219.531 27.8899 219.649 27.8727H221.923V28.8296H214.829V27.8781C216.47 27.8781 216.577 27.8781 216.856 27.1698L225.698 6.03076C226.288 5.83586 226.898 5.70713 227.516 5.64691C227.546 5.64743 227.576 5.65434 227.603 5.66719C227.63 5.68004 227.654 5.69855 227.674 5.7215C227.694 5.74445 227.709 5.77133 227.717 5.8004C227.726 5.82946 227.729 5.86006 227.725 5.89019C227.725 6.3173 227.13 6.24702 227.13 6.97148C227.13 8.38255 232.057 22.5474 233.35 25.6452C233.838 26.8076 234.294 27.8673 235.06 27.8673H236.353V28.8296H229.157V27.8781H230.905C231.494 27.8781 231.564 27.8078 231.564 27.5267C231.564 27.2455 230.17 23.261 229.087 20.2658H220.872ZM225.414 9.15026C223.601 13.3943 222.529 15.9353 221.328 19.1035H228.631L225.414 9.15026ZM237.468 6.44705H244.975V7.39858H243.575C243.157 7.39858 242.771 7.39858 242.771 7.75V22.7312C242.771 27.6672 243.018 27.6672 244.203 27.6672H246.439C248.155 27.6672 253.361 27.6672 254.058 25.9372C254.128 25.7642 254.198 25.5858 254.444 25.5858C254.477 25.585 254.509 25.5909 254.539 25.6032C254.569 25.6155 254.596 25.6339 254.619 25.6572C254.641 25.6805 254.659 25.7083 254.671 25.7388C254.682 25.7693 254.687 25.8019 254.686 25.8345C254.686 26.0453 254.267 27.3482 253.812 28.8296H238.369V27.8781H239.8C240.186 27.8781 240.503 27.8078 240.503 27.5267V12.1292C240.503 8.11223 240.396 7.4094 239.522 7.4094H237.457L237.468 6.44705ZM268.359 8.85291C268.359 9.06376 268.322 9.27461 268.043 9.27461C267.764 9.27461 267.732 9.06376 267.694 8.78262C267.485 7.33371 264.584 6.94985 263.539 6.94985C259.973 6.94985 258.541 9.41517 258.541 11.2101C258.541 17.341 270 14.9135 270 22.6609C270 27.0671 265.946 29.5 261.791 29.5C260.002 29.482 258.229 29.1603 256.546 28.5485C256.268 26.8184 256.058 25.656 256.058 25.4128C256.052 25.3634 256.057 25.3132 256.072 25.2657C256.086 25.2182 256.111 25.1745 256.144 25.1375C256.177 25.1006 256.218 25.0713 256.263 25.0516C256.309 25.0319 256.358 25.0223 256.407 25.0235C256.756 25.0235 256.825 25.3749 256.863 25.656C257.281 27.6294 260.74 28.3592 262.348 28.3592C265.319 28.3592 268.22 26.8076 268.22 23.7746C268.22 16.8706 256.863 19.8658 256.863 11.94C256.863 8.34471 260.67 5.8091 264.584 5.8091C265.868 5.77342 267.145 6.00152 268.338 6.47949L268.359 8.85291Z" fill="#1D1B1B"/>
</svg>
