<svg xmlns="http://www.w3.org/2000/svg" width="12" height="14" viewBox="0 0 12 14" fill="none">
    <path d="M8.78087 0.672753L8.46722 0.178223H6.56919V4.63223L6.56272 8.9828C6.56595 9.01512 6.56919 9.05067 6.56919 9.083C6.56919 10.1723 5.68322 11.0611 4.59032 11.0611C3.49741 11.0611 2.61144 10.1755 2.61144 9.083C2.61144 7.99374 3.49741 7.10488 4.59032 7.10488C4.81666 7.10488 5.03653 7.14689 5.24024 7.218V5.04595C5.03007 5.0104 4.81342 4.991 4.59032 4.991C2.3366 4.99423 0.5 6.83014 0.5 9.08623C0.5 11.3423 2.3366 13.1782 4.59355 13.1782C6.8505 13.1782 8.6871 11.3423 8.6871 9.08623V3.91144C9.50516 4.72919 10.5625 5.52755 11.733 5.7829V3.56236C10.4623 2.99995 9.19798 1.33859 8.78087 0.672753Z" fill="white"/>
</svg>