<svg xmlns="http://www.w3.org/2000/svg" width="14" height="13" viewBox="0 0 14 13" fill="none"><path d="M0.600006 10.3946C1.99312 10.473 3.21135 10.1473 4.39942 9.28491C3.19928 9.07986 2.36704 8.53106 1.91473 7.39727C2.26451 7.34902 2.57208 7.43948 2.93393 7.29474C1.75189 6.7761 0.985979 5.99812 0.955825 4.65325C1.32974 4.6834 1.61319 4.93067 2.05947 4.89448C0.973921 3.83306 0.642222 2.67515 1.3237 1.26997C2.45749 2.57262 3.78428 3.45915 5.40656 3.87528C5.49703 3.8994 5.58145 3.92352 5.67191 3.94162C6.08804 4.03811 6.58257 4.24316 6.83586 4.213C7.27008 4.15872 6.83587 3.65817 6.94442 3.00684C7.28818 0.980489 9.51957 0.057775 11.172 1.24584C11.6545 1.59563 12.0344 1.5896 12.5109 1.37852C12.7581 1.26997 13.0114 1.16141 13.3069 1.03477C13.2406 1.61372 12.7943 1.93336 12.4385 2.36154C12.8425 2.45201 13.1682 2.33742 13.5421 2.2168C13.4155 2.63293 13.1019 2.86813 12.8184 3.0973C12.5229 3.3325 12.4083 3.57977 12.3963 3.96574C12.2153 9.80959 5.57543 14.3267 1.03423 10.7323C0.59398 10.3825 1.02216 10.7323 0.600006 10.3946Z" fill="white"/></svg>